<?xml version="1.0" encoding="UTF-8"?>
<svg xmlns="http://www.w3.org/2000/svg" xmlns:xlink="http://www.w3.org/1999/xlink" width="129.055pt" height="124.985pt" viewBox="0 0 129.055 124.985">
<defs>
<g>
<g id="glyph-0-0">
<path d="M 1.734375 -0.734375 C 1.671875 -0.5 1.4375 -0.125 1.078125 -0.125 C 1.0625 -0.125 0.84375 -0.125 0.703125 -0.21875 C 0.984375 -0.3125 1.015625 -0.5625 1.015625 -0.609375 C 1.015625 -0.765625 0.890625 -0.859375 0.734375 -0.859375 C 0.53125 -0.859375 0.328125 -0.703125 0.328125 -0.4375 C 0.328125 -0.09375 0.71875 0.0625 1.0625 0.0625 C 1.390625 0.0625 1.671875 -0.125 1.84375 -0.421875 C 2.015625 -0.0625 2.390625 0.0625 2.671875 0.0625 C 3.484375 0.0625 3.90625 -0.796875 3.90625 -1 C 3.90625 -1.09375 3.8125 -1.09375 3.796875 -1.09375 C 3.6875 -1.09375 3.6875 -1.046875 3.65625 -0.96875 C 3.515625 -0.484375 3.09375 -0.125 2.703125 -0.125 C 2.421875 -0.125 2.28125 -0.3125 2.28125 -0.578125 C 2.28125 -0.765625 2.453125 -1.390625 2.640625 -2.171875 C 2.78125 -2.703125 3.09375 -2.875 3.328125 -2.875 C 3.34375 -2.875 3.546875 -2.875 3.703125 -2.78125 C 3.484375 -2.71875 3.390625 -2.515625 3.390625 -2.390625 C 3.390625 -2.25 3.515625 -2.140625 3.671875 -2.140625 C 3.828125 -2.140625 4.0625 -2.265625 4.0625 -2.5625 C 4.0625 -2.953125 3.609375 -3.078125 3.34375 -3.078125 C 2.984375 -3.078125 2.703125 -2.84375 2.5625 -2.578125 C 2.4375 -2.859375 2.109375 -3.078125 1.71875 -3.078125 C 0.9375 -3.078125 0.5 -2.21875 0.5 -2 C 0.5 -1.921875 0.59375 -1.921875 0.609375 -1.921875 C 0.703125 -1.921875 0.703125 -1.9375 0.75 -2.03125 C 0.921875 -2.578125 1.359375 -2.875 1.703125 -2.875 C 1.9375 -2.875 2.125 -2.75 2.125 -2.421875 C 2.125 -2.28125 2.03125 -1.9375 1.96875 -1.6875 Z M 1.734375 -0.734375 "/>
</g>
<g id="glyph-0-1">
<path d="M 3.875 -2.625 C 3.90625 -2.71875 3.90625 -2.734375 3.90625 -2.78125 C 3.90625 -2.921875 3.796875 -3 3.671875 -3 C 3.59375 -3 3.46875 -2.96875 3.390625 -2.84375 C 3.359375 -2.796875 3.3125 -2.578125 3.28125 -2.4375 L 3.125 -1.859375 C 3.09375 -1.6875 2.875 -0.8125 2.84375 -0.734375 C 2.84375 -0.734375 2.53125 -0.125 2 -0.125 C 1.515625 -0.125 1.515625 -0.578125 1.515625 -0.703125 C 1.515625 -1.078125 1.671875 -1.515625 1.890625 -2.0625 C 1.96875 -2.28125 2 -2.359375 2 -2.484375 C 2 -2.8125 1.71875 -3.078125 1.34375 -3.078125 C 0.640625 -3.078125 0.328125 -2.125 0.328125 -2 C 0.328125 -1.921875 0.421875 -1.921875 0.453125 -1.921875 C 0.546875 -1.921875 0.546875 -1.953125 0.578125 -2.03125 C 0.75 -2.609375 1.046875 -2.875 1.328125 -2.875 C 1.4375 -2.875 1.5 -2.796875 1.5 -2.640625 C 1.5 -2.46875 1.4375 -2.328125 1.40625 -2.234375 C 1.0625 -1.375 1 -1.125 1 -0.8125 C 1 -0.703125 1 -0.375 1.265625 -0.140625 C 1.484375 0.03125 1.78125 0.0625 1.96875 0.0625 C 2.25 0.0625 2.5 -0.03125 2.71875 -0.25 C 2.640625 0.140625 2.5625 0.4375 2.265625 0.78125 C 2.078125 1 1.796875 1.21875 1.421875 1.21875 C 1.375 1.21875 1.046875 1.21875 0.90625 1 C 1.28125 0.953125 1.28125 0.625 1.28125 0.609375 C 1.28125 0.390625 1.078125 0.34375 1.015625 0.34375 C 0.84375 0.34375 0.609375 0.484375 0.609375 0.8125 C 0.609375 1.15625 0.9375 1.421875 1.4375 1.421875 C 2.140625 1.421875 3 0.875 3.21875 0 Z M 3.875 -2.625 "/>
</g>
<g id="glyph-1-0">
<path d="M 5.1875 -1.578125 C 5.296875 -1.578125 5.46875 -1.578125 5.46875 -1.734375 C 5.46875 -1.921875 5.296875 -1.921875 5.1875 -1.921875 L 1.03125 -1.921875 C 0.921875 -1.921875 0.75 -1.921875 0.75 -1.75 C 0.75 -1.578125 0.90625 -1.578125 1.03125 -1.578125 Z M 5.1875 -1.578125 "/>
</g>
<g id="glyph-2-0">
<path d="M 3.6875 -1.140625 L 3.6875 -1.390625 L 2.90625 -1.390625 L 2.90625 -4.5 C 2.90625 -4.640625 2.90625 -4.703125 2.765625 -4.703125 C 2.671875 -4.703125 2.640625 -4.703125 2.578125 -4.59375 L 0.265625 -1.390625 L 0.265625 -1.140625 L 2.328125 -1.140625 L 2.328125 -0.578125 C 2.328125 -0.328125 2.328125 -0.25 1.75 -0.25 L 1.5625 -0.25 L 1.5625 0 C 1.921875 -0.015625 2.359375 -0.03125 2.609375 -0.03125 C 2.875 -0.03125 3.3125 -0.015625 3.671875 0 L 3.671875 -0.25 L 3.484375 -0.25 C 2.90625 -0.25 2.90625 -0.328125 2.90625 -0.578125 L 2.90625 -1.140625 Z M 2.375 -3.9375 L 2.375 -1.390625 L 0.53125 -1.390625 Z M 2.375 -3.9375 "/>
</g>
<g id="glyph-2-1">
<path d="M 1.90625 -2.328125 C 2.453125 -2.328125 2.84375 -1.953125 2.84375 -1.203125 C 2.84375 -0.34375 2.328125 -0.078125 1.9375 -0.078125 C 1.65625 -0.078125 1.03125 -0.15625 0.75 -0.578125 C 1.078125 -0.578125 1.15625 -0.8125 1.15625 -0.96875 C 1.15625 -1.1875 0.984375 -1.34375 0.765625 -1.34375 C 0.578125 -1.34375 0.375 -1.21875 0.375 -0.9375 C 0.375 -0.28125 1.09375 0.140625 1.9375 0.140625 C 2.90625 0.140625 3.578125 -0.515625 3.578125 -1.203125 C 3.578125 -1.75 3.140625 -2.296875 2.375 -2.453125 C 3.09375 -2.71875 3.359375 -3.234375 3.359375 -3.671875 C 3.359375 -4.21875 2.734375 -4.625 1.953125 -4.625 C 1.1875 -4.625 0.59375 -4.25 0.59375 -3.6875 C 0.59375 -3.453125 0.75 -3.328125 0.953125 -3.328125 C 1.171875 -3.328125 1.3125 -3.484375 1.3125 -3.671875 C 1.3125 -3.875 1.171875 -4.03125 0.953125 -4.046875 C 1.203125 -4.34375 1.671875 -4.421875 1.9375 -4.421875 C 2.25 -4.421875 2.6875 -4.265625 2.6875 -3.671875 C 2.6875 -3.375 2.59375 -3.046875 2.40625 -2.84375 C 2.1875 -2.578125 1.984375 -2.5625 1.640625 -2.53125 C 1.46875 -2.515625 1.453125 -2.515625 1.421875 -2.515625 C 1.40625 -2.515625 1.34375 -2.5 1.34375 -2.421875 C 1.34375 -2.328125 1.40625 -2.328125 1.53125 -2.328125 Z M 1.90625 -2.328125 "/>
</g>
<g id="glyph-2-2">
<path d="M 3.515625 -1.265625 L 3.28125 -1.265625 C 3.265625 -1.109375 3.1875 -0.703125 3.09375 -0.640625 C 3.046875 -0.59375 2.515625 -0.59375 2.40625 -0.59375 L 1.125 -0.59375 C 1.859375 -1.234375 2.109375 -1.4375 2.515625 -1.765625 C 3.03125 -2.171875 3.515625 -2.609375 3.515625 -3.265625 C 3.515625 -4.109375 2.78125 -4.625 1.890625 -4.625 C 1.03125 -4.625 0.4375 -4.015625 0.4375 -3.375 C 0.4375 -3.03125 0.734375 -2.984375 0.8125 -2.984375 C 0.96875 -2.984375 1.171875 -3.109375 1.171875 -3.359375 C 1.171875 -3.484375 1.125 -3.734375 0.765625 -3.734375 C 0.984375 -4.21875 1.453125 -4.375 1.78125 -4.375 C 2.484375 -4.375 2.84375 -3.828125 2.84375 -3.265625 C 2.84375 -2.65625 2.40625 -2.1875 2.1875 -1.9375 L 0.515625 -0.265625 C 0.4375 -0.203125 0.4375 -0.1875 0.4375 0 L 3.3125 0 Z M 3.515625 -1.265625 "/>
</g>
<g id="glyph-2-3">
<path d="M 2.328125 -4.4375 C 2.328125 -4.625 2.328125 -4.625 2.125 -4.625 C 1.671875 -4.1875 1.046875 -4.1875 0.765625 -4.1875 L 0.765625 -3.9375 C 0.921875 -3.9375 1.390625 -3.9375 1.765625 -4.125 L 1.765625 -0.578125 C 1.765625 -0.34375 1.765625 -0.25 1.078125 -0.25 L 0.8125 -0.25 L 0.8125 0 C 0.9375 0 1.796875 -0.03125 2.046875 -0.03125 C 2.265625 -0.03125 3.140625 0 3.296875 0 L 3.296875 -0.25 L 3.03125 -0.25 C 2.328125 -0.25 2.328125 -0.34375 2.328125 -0.578125 Z M 2.328125 -4.4375 "/>
</g>
</g>
</defs>
<path fill="none" stroke-width="0.49814" stroke-linecap="round" stroke-linejoin="round" stroke="rgb(69.999695%, 69.999695%, 69.999695%)" stroke-opacity="1" stroke-miterlimit="10" d="M 0.0001175 59.77418 L 119.550899 59.77418 " transform="matrix(1, 0, 0, -1, 2.24207, 122.74293)"/>
<path fill="none" stroke-width="0.49814" stroke-linecap="round" stroke-linejoin="round" stroke="rgb(0%, 0%, 0%)" stroke-opacity="1" stroke-miterlimit="10" d="M 114.57043 62.266368 C 115.746211 60.699961 117.589961 59.77418 119.550899 59.77418 C 117.589961 59.77418 115.746211 58.852305 114.57043 57.285899 " transform="matrix(1, 0, 0, -1, 2.24207, 122.74293)"/>
<path fill="none" stroke-width="0.49814" stroke-linecap="round" stroke-linejoin="round" stroke="rgb(69.999695%, 69.999695%, 69.999695%)" stroke-opacity="1" stroke-miterlimit="10" d="M 59.777461 0.0007425 L 59.777461 119.551524 " transform="matrix(1, 0, 0, -1, 2.24207, 122.74293)"/>
<path fill="none" stroke-width="0.49814" stroke-linecap="round" stroke-linejoin="round" stroke="rgb(0%, 0%, 0%)" stroke-opacity="1" stroke-miterlimit="10" d="M 57.285274 114.571055 C 58.85168 115.746836 59.777461 117.590586 59.777461 119.551524 C 59.777461 117.590586 60.699336 115.746836 62.265743 114.571055 " transform="matrix(1, 0, 0, -1, 2.24207, 122.74293)"/>
<path fill="none" stroke-width="0.49814" stroke-linecap="round" stroke-linejoin="round" stroke="rgb(69.999695%, 69.999695%, 69.999695%)" stroke-opacity="1" stroke-miterlimit="10" d="M 11.953242 57.781993 L 11.953242 61.766368 " transform="matrix(1, 0, 0, -1, 2.24207, 122.74293)"/>
<path fill="none" stroke-width="0.49814" stroke-linecap="round" stroke-linejoin="round" stroke="rgb(69.999695%, 69.999695%, 69.999695%)" stroke-opacity="1" stroke-miterlimit="10" d="M 23.910274 57.781993 L 23.910274 61.766368 " transform="matrix(1, 0, 0, -1, 2.24207, 122.74293)"/>
<path fill="none" stroke-width="0.49814" stroke-linecap="round" stroke-linejoin="round" stroke="rgb(69.999695%, 69.999695%, 69.999695%)" stroke-opacity="1" stroke-miterlimit="10" d="M 35.867305 57.781993 L 35.867305 61.766368 " transform="matrix(1, 0, 0, -1, 2.24207, 122.74293)"/>
<path fill="none" stroke-width="0.49814" stroke-linecap="round" stroke-linejoin="round" stroke="rgb(69.999695%, 69.999695%, 69.999695%)" stroke-opacity="1" stroke-miterlimit="10" d="M 47.82043 57.781993 L 47.82043 61.766368 " transform="matrix(1, 0, 0, -1, 2.24207, 122.74293)"/>
<path fill="none" stroke-width="0.49814" stroke-linecap="round" stroke-linejoin="round" stroke="rgb(69.999695%, 69.999695%, 69.999695%)" stroke-opacity="1" stroke-miterlimit="10" d="M 71.730586 57.781993 L 71.730586 61.766368 " transform="matrix(1, 0, 0, -1, 2.24207, 122.74293)"/>
<path fill="none" stroke-width="0.49814" stroke-linecap="round" stroke-linejoin="round" stroke="rgb(69.999695%, 69.999695%, 69.999695%)" stroke-opacity="1" stroke-miterlimit="10" d="M 83.687618 57.781993 L 83.687618 61.766368 " transform="matrix(1, 0, 0, -1, 2.24207, 122.74293)"/>
<path fill="none" stroke-width="0.49814" stroke-linecap="round" stroke-linejoin="round" stroke="rgb(69.999695%, 69.999695%, 69.999695%)" stroke-opacity="1" stroke-miterlimit="10" d="M 95.640743 57.781993 L 95.640743 61.766368 " transform="matrix(1, 0, 0, -1, 2.24207, 122.74293)"/>
<path fill="none" stroke-width="0.49814" stroke-linecap="round" stroke-linejoin="round" stroke="rgb(69.999695%, 69.999695%, 69.999695%)" stroke-opacity="1" stroke-miterlimit="10" d="M 107.597774 57.781993 L 107.597774 61.766368 " transform="matrix(1, 0, 0, -1, 2.24207, 122.74293)"/>
<path fill="none" stroke-width="0.49814" stroke-linecap="round" stroke-linejoin="round" stroke="rgb(69.999695%, 69.999695%, 69.999695%)" stroke-opacity="1" stroke-miterlimit="10" d="M 61.769649 11.953868 L 57.781368 11.953868 " transform="matrix(1, 0, 0, -1, 2.24207, 122.74293)"/>
<path fill="none" stroke-width="0.49814" stroke-linecap="round" stroke-linejoin="round" stroke="rgb(69.999695%, 69.999695%, 69.999695%)" stroke-opacity="1" stroke-miterlimit="10" d="M 61.769649 23.910899 L 57.781368 23.910899 " transform="matrix(1, 0, 0, -1, 2.24207, 122.74293)"/>
<path fill="none" stroke-width="0.49814" stroke-linecap="round" stroke-linejoin="round" stroke="rgb(69.999695%, 69.999695%, 69.999695%)" stroke-opacity="1" stroke-miterlimit="10" d="M 61.769649 35.864024 L 57.781368 35.864024 " transform="matrix(1, 0, 0, -1, 2.24207, 122.74293)"/>
<path fill="none" stroke-width="0.49814" stroke-linecap="round" stroke-linejoin="round" stroke="rgb(69.999695%, 69.999695%, 69.999695%)" stroke-opacity="1" stroke-miterlimit="10" d="M 61.769649 47.821055 L 57.781368 47.821055 " transform="matrix(1, 0, 0, -1, 2.24207, 122.74293)"/>
<path fill="none" stroke-width="0.49814" stroke-linecap="round" stroke-linejoin="round" stroke="rgb(69.999695%, 69.999695%, 69.999695%)" stroke-opacity="1" stroke-miterlimit="10" d="M 61.769649 71.731211 L 57.781368 71.731211 " transform="matrix(1, 0, 0, -1, 2.24207, 122.74293)"/>
<path fill="none" stroke-width="0.49814" stroke-linecap="round" stroke-linejoin="round" stroke="rgb(69.999695%, 69.999695%, 69.999695%)" stroke-opacity="1" stroke-miterlimit="10" d="M 61.769649 83.684336 L 57.781368 83.684336 " transform="matrix(1, 0, 0, -1, 2.24207, 122.74293)"/>
<path fill="none" stroke-width="0.49814" stroke-linecap="round" stroke-linejoin="round" stroke="rgb(69.999695%, 69.999695%, 69.999695%)" stroke-opacity="1" stroke-miterlimit="10" d="M 61.769649 95.641368 L 57.781368 95.641368 " transform="matrix(1, 0, 0, -1, 2.24207, 122.74293)"/>
<path fill="none" stroke-width="0.49814" stroke-linecap="round" stroke-linejoin="round" stroke="rgb(69.999695%, 69.999695%, 69.999695%)" stroke-opacity="1" stroke-miterlimit="10" d="M 61.769649 107.594493 L 57.781368 107.594493 " transform="matrix(1, 0, 0, -1, 2.24207, 122.74293)"/>
<path fill="none" stroke-width="0.49814" stroke-linecap="round" stroke-linejoin="round" stroke="rgb(32.998657%, 32.998657%, 32.998657%)" stroke-opacity="1" stroke-miterlimit="10" d="M 89.66418 111.543711 L 59.777461 59.77418 L 119.550899 59.77418 " transform="matrix(1, 0, 0, -1, 2.24207, 122.74293)"/>
<path fill="none" stroke-width="0.49814" stroke-linecap="round" stroke-linejoin="round" stroke="rgb(0%, 0%, 0%)" stroke-opacity="1" stroke-miterlimit="10" d="M 86.875118 109.699961 C 88.043086 109.840586 89.074336 110.52418 89.66418 111.543711 C 89.074336 110.52418 89.000118 109.289805 89.464961 108.207774 " transform="matrix(1, 0, 0, -1, 2.24207, 122.74293)"/>
<path fill-rule="nonzero" fill="rgb(0%, 0%, 0%)" fill-opacity="1" d="M 62.019531 61.472656 C 61.621094 61.472656 61.242188 61.628906 60.960938 61.910156 C 60.679688 62.191406 60.523438 62.570312 60.523438 62.96875 C 60.523438 63.363281 60.679688 63.742188 60.960938 64.023438 C 61.242188 64.304688 61.621094 64.460938 62.019531 64.460938 C 62.414062 64.460938 62.792969 64.304688 63.074219 64.023438 C 63.355469 63.742188 63.511719 63.363281 63.511719 62.96875 C 63.511719 62.570312 63.355469 62.191406 63.074219 61.910156 C 62.792969 61.628906 62.414062 61.472656 62.019531 61.472656 Z M 62.019531 61.472656 "/>
<path fill="none" stroke-width="0.49814" stroke-linecap="round" stroke-linejoin="round" stroke="rgb(32.998657%, 32.998657%, 32.998657%)" stroke-opacity="1" stroke-miterlimit="10" d="M 62.765743 59.77418 C 62.816524 59.688243 62.859493 59.594493 62.902461 59.500743 C 62.94543 59.403086 62.980586 59.30543 63.011836 59.203868 C 63.046993 59.098399 63.074336 58.99293 63.093868 58.887461 C 63.117305 58.77418 63.136836 58.660899 63.144649 58.547618 C 63.156368 58.43043 63.16418 58.313243 63.160274 58.196055 C 63.160274 58.074961 63.152461 57.953868 63.140743 57.832774 C 63.125118 57.707774 63.105586 57.582774 63.082149 57.46168 C 63.054805 57.332774 63.019649 57.207774 62.980586 57.08668 C 62.941524 56.957774 62.894649 56.832774 62.839961 56.71168 C 62.785274 56.58668 62.722774 56.46168 62.656368 56.340586 C 62.589961 56.219493 62.511836 56.098399 62.433711 55.981211 C 62.35168 55.860118 62.261836 55.746836 62.168086 55.633555 C 62.07043 55.520274 61.968868 55.410899 61.859493 55.30543 C 61.750118 55.199961 61.63293 55.098399 61.511836 55.000743 C 61.390743 54.903086 61.261836 54.809336 61.129024 54.723399 C 60.992305 54.633555 60.855586 54.551524 60.711055 54.477305 C 60.562618 54.39918 60.410274 54.328868 60.25793 54.266368 C 60.097774 54.203868 59.937618 54.145274 59.777461 54.098399 C 59.609493 54.047618 59.437618 54.004649 59.269649 53.969493 C 59.093868 53.934336 58.91418 53.906993 58.738399 53.887461 C 58.554805 53.871836 58.371211 53.860118 58.191524 53.856211 C 58.004024 53.856211 57.816524 53.860118 57.629024 53.875743 C 57.437618 53.895274 57.250118 53.918711 57.058711 53.949961 C 56.867305 53.985118 56.675899 54.028086 56.488399 54.082774 C 56.296993 54.133555 56.105586 54.196055 55.918086 54.266368 C 55.72668 54.340586 55.53918 54.418711 55.355586 54.508555 C 55.171993 54.602305 54.988399 54.699961 54.808711 54.809336 C 54.629024 54.918711 54.449336 55.039805 54.281368 55.164805 C 54.105586 55.293711 53.937618 55.43043 53.777461 55.574961 C 53.613399 55.723399 53.457149 55.879649 53.304805 56.039805 C 53.152461 56.203868 53.004024 56.375743 52.867305 56.55543 C 52.72668 56.735118 52.597774 56.922618 52.472774 57.11793 C 52.347774 57.317149 52.230586 57.516368 52.125118 57.727305 C 52.015743 57.938243 51.918086 58.153086 51.828243 58.375743 C 51.738399 58.598399 51.656368 58.828868 51.586055 59.059336 C 51.515743 59.297618 51.457149 59.535899 51.406368 59.77418 C 51.355586 60.020274 51.316524 60.270274 51.28918 60.516368 C 51.261836 60.770274 51.246211 61.02418 51.238399 61.281993 C 51.234493 61.539805 51.242305 61.797618 51.25793 62.059336 C 51.277461 62.321055 51.308711 62.582774 51.35168 62.840586 C 51.394649 63.106211 51.44543 63.36793 51.515743 63.629649 C 51.582149 63.891368 51.660274 64.153086 51.754024 64.410899 C 51.843868 64.668711 51.949336 64.926524 52.062618 65.176524 C 52.179805 65.43043 52.308711 65.68043 52.449336 65.922618 C 52.589961 66.168711 52.742305 66.410899 52.906368 66.645274 C 53.074336 66.879649 53.250118 67.110118 53.437618 67.332774 C 53.625118 67.55543 53.824336 67.770274 54.031368 67.977305 C 54.246211 68.188243 54.464961 68.387461 54.69543 68.574961 C 54.925899 68.766368 55.168086 68.949961 55.418086 69.121836 C 55.671993 69.293711 55.929805 69.457774 56.199336 69.606211 C 56.468868 69.758555 56.746211 69.89918 57.031368 70.02418 C 57.316524 70.153086 57.609493 70.270274 57.906368 70.371836 C 58.207149 70.477305 58.515743 70.567149 58.824336 70.645274 C 59.140743 70.719493 59.457149 70.785899 59.777461 70.832774 C 60.10168 70.883555 60.425899 70.918711 60.754024 70.942149 C 61.082149 70.96168 61.41418 70.969493 61.746211 70.96168 C 62.082149 70.949961 62.421993 70.93043 62.754024 70.891368 C 63.093868 70.852305 63.429805 70.797618 63.761836 70.727305 C 64.10168 70.660899 64.433711 70.574961 64.765743 70.477305 C 65.097774 70.375743 65.429805 70.258555 65.754024 70.129649 C 66.082149 69.996836 66.402461 69.852305 66.718868 69.692149 C 67.03918 69.528086 67.347774 69.352305 67.652461 69.164805 C 67.957149 68.969493 68.25793 68.766368 68.546993 68.547618 C 68.836055 68.324961 69.121211 68.090586 69.390743 67.844493 C 69.668086 67.594493 69.929805 67.332774 70.179805 67.059336 C 70.433711 66.785899 70.675899 66.500743 70.906368 66.199961 C 71.136836 65.903086 71.355586 65.590586 71.558711 65.270274 C 71.765743 64.946055 71.957149 64.614024 72.13293 64.27418 C 72.312618 63.93043 72.47668 63.574961 72.621211 63.219493 C 72.769649 62.856211 72.906368 62.485118 73.019649 62.110118 C 73.136836 61.731211 73.238399 61.348399 73.324336 60.96168 C 73.406368 60.567149 73.47668 60.172618 73.523555 59.77418 C 73.574336 59.371836 73.605586 58.969493 73.621211 58.563243 C 73.636836 58.156993 73.63293 57.746836 73.609493 57.33668 C 73.586055 56.922618 73.546993 56.512461 73.488399 56.102305 C 73.429805 55.688243 73.35168 55.27418 73.25793 54.86793 C 73.160274 54.457774 73.046993 54.051524 72.91418 53.64918 C 72.781368 53.24293 72.629024 52.844493 72.457149 52.453868 C 72.28918 52.059336 72.097774 51.668711 71.894649 51.289805 C 71.687618 50.906993 71.464961 50.531993 71.222774 50.168711 C 70.980586 49.801524 70.722774 49.446055 70.449336 49.102305 C 70.171993 48.754649 69.879024 48.418711 69.574336 48.098399 C 69.261836 47.77418 68.941524 47.46168 68.605586 47.168711 C 68.265743 46.86793 67.910274 46.582774 67.546993 46.317149 C 67.179805 46.047618 66.796993 45.793711 66.406368 45.55543 C 66.011836 45.317149 65.605586 45.094493 65.191524 44.891368 C 64.773555 44.684336 64.347774 44.496836 63.91418 44.328868 C 63.47668 44.160899 63.031368 44.012461 62.578243 43.879649 C 62.121211 43.750743 61.660274 43.641368 61.19543 43.547618 C 60.72668 43.457774 60.250118 43.387461 59.773555 43.33668 C 59.293086 43.285899 58.812618 43.258555 58.328243 43.250743 C 57.843868 43.24293 57.355586 43.258555 56.871211 43.293711 C 56.379024 43.328868 55.890743 43.387461 55.402461 43.465586 C 54.91418 43.543711 54.429805 43.645274 53.949336 43.766368 C 53.464961 43.891368 52.984493 44.035899 52.511836 44.199961 C 52.035274 44.36793 51.57043 44.55543 51.109493 44.762461 C 50.644649 44.973399 50.191524 45.203868 49.746211 45.453868 C 49.300899 45.703868 48.863399 45.977305 48.441524 46.266368 C 48.015743 46.559336 47.60168 46.871836 47.203243 47.199961 C 46.800899 47.531993 46.410274 47.883555 46.03918 48.246836 C 45.66418 48.61793 45.304805 49.004649 44.964961 49.403086 C 44.617305 49.809336 44.293086 50.227305 43.988399 50.660899 C 43.675899 51.094493 43.386836 51.543711 43.117305 52.004649 C 42.843868 52.473399 42.593868 52.949961 42.363399 53.438243 C 42.129024 53.93043 41.921993 54.43043 41.730586 54.942149 C 41.543086 55.453868 41.375118 55.977305 41.234493 56.504649 C 41.086055 57.039805 40.964961 57.578868 40.871211 58.121836 C 40.769649 58.668711 40.69543 59.223399 40.648555 59.778086 C 40.597774 60.33668 40.57043 60.895274 40.57043 61.457774 C 40.57043 62.020274 40.593868 62.58668 40.644649 63.14918 C 40.691524 63.715586 40.765743 64.281993 40.867305 64.844493 C 40.964961 65.406993 41.089961 65.969493 41.238399 66.52418 C 41.390743 67.082774 41.562618 67.633555 41.761836 68.176524 C 41.961055 68.723399 42.187618 69.258555 42.433711 69.785899 C 42.683711 70.321055 42.957149 70.840586 43.250118 71.348399 C 43.546993 71.860118 43.867305 72.356211 44.207149 72.840586 C 44.550899 73.324961 44.91418 73.797618 45.296993 74.250743 C 45.687618 74.71168 46.093868 75.14918 46.519649 75.571055 C 46.949336 75.996836 47.394649 76.406993 47.863399 76.793711 C 48.328243 77.18043 48.816524 77.547618 49.316524 77.895274 C 49.82043 78.24293 50.336055 78.567149 50.871211 78.871836 C 51.406368 79.176524 51.957149 79.46168 52.519649 79.715586 C 53.086055 79.977305 53.660274 80.21168 54.246211 80.418711 C 54.836055 80.625743 55.433711 80.809336 56.03918 80.969493 C 56.648555 81.125743 57.265743 81.258555 57.886836 81.360118 C 58.511836 81.465586 59.144649 81.543711 59.777461 81.594493 C 60.41418 81.645274 61.050899 81.664805 61.691524 81.660899 C 62.332149 81.653086 62.97668 81.61793 63.617305 81.55543 C 64.25793 81.49293 64.902461 81.403086 65.535274 81.281993 C 66.179805 81.164805 66.816524 81.016368 67.44543 80.840586 C 68.074336 80.664805 68.699336 80.457774 69.312618 80.227305 " transform="matrix(1, 0, 0, -1, 2.24207, 122.74293)"/>
<path fill="none" stroke-width="0.49814" stroke-linecap="round" stroke-linejoin="round" stroke="rgb(0%, 0%, 0%)" stroke-opacity="1" stroke-miterlimit="10" d="M 67.043086 82.68043 C 67.371211 81.551524 68.211055 80.641368 69.312618 80.227305 C 68.211055 80.641368 66.980586 80.516368 65.988399 79.883555 " transform="matrix(1, 0, 0, -1, 2.24207, 122.74293)"/>
<g fill="rgb(0%, 0%, 0%)" fill-opacity="1">
<use xlink:href="#glyph-0-0" x="122.544" y="68.194"/>
</g>
<g fill="rgb(0%, 0%, 0%)" fill-opacity="1">
<use xlink:href="#glyph-0-1" x="65.757" y="5.43"/>
</g>
<g fill="rgb(0%, 0%, 0%)" fill-opacity="1">
<use xlink:href="#glyph-1-0" x="6.362" y="71.692"/>
</g>
<g fill="rgb(0%, 0%, 0%)" fill-opacity="1">
<use xlink:href="#glyph-2-0" x="12.588906" y="71.692"/>
</g>
<g fill="rgb(0%, 0%, 0%)" fill-opacity="1">
<use xlink:href="#glyph-1-0" x="18.317883" y="71.692"/>
</g>
<g fill="rgb(0%, 0%, 0%)" fill-opacity="1">
<use xlink:href="#glyph-2-1" x="24.544789" y="71.692"/>
</g>
<g fill="rgb(0%, 0%, 0%)" fill-opacity="1">
<use xlink:href="#glyph-1-0" x="30.273765" y="71.692"/>
</g>
<g fill="rgb(0%, 0%, 0%)" fill-opacity="1">
<use xlink:href="#glyph-2-2" x="36.500671" y="71.692"/>
</g>
<g fill="rgb(0%, 0%, 0%)" fill-opacity="1">
<use xlink:href="#glyph-1-0" x="42.229648" y="71.692"/>
</g>
<g fill="rgb(0%, 0%, 0%)" fill-opacity="1">
<use xlink:href="#glyph-2-3" x="48.456554" y="71.692"/>
</g>
<g fill="rgb(0%, 0%, 0%)" fill-opacity="1">
<use xlink:href="#glyph-2-3" x="72.735839" y="71.692"/>
</g>
<g fill="rgb(0%, 0%, 0%)" fill-opacity="1">
<use xlink:href="#glyph-2-2" x="84.692419" y="71.692"/>
</g>
<g fill="rgb(0%, 0%, 0%)" fill-opacity="1">
<use xlink:href="#glyph-2-1" x="96.648999" y="71.692"/>
</g>
<g fill="rgb(0%, 0%, 0%)" fill-opacity="1">
<use xlink:href="#glyph-2-0" x="108.605579" y="71.692"/>
</g>
<g fill="rgb(0%, 0%, 0%)" fill-opacity="1">
<use xlink:href="#glyph-1-0" x="47.589" y="76.004"/>
</g>
<g fill="rgb(0%, 0%, 0%)" fill-opacity="1">
<use xlink:href="#glyph-2-3" x="53.815906" y="76.004"/>
</g>
<g fill="rgb(0%, 0%, 0%)" fill-opacity="1">
<use xlink:href="#glyph-1-0" x="47.589" y="87.959"/>
</g>
<g fill="rgb(0%, 0%, 0%)" fill-opacity="1">
<use xlink:href="#glyph-2-2" x="53.815906" y="87.959"/>
</g>
<g fill="rgb(0%, 0%, 0%)" fill-opacity="1">
<use xlink:href="#glyph-1-0" x="47.589" y="99.914"/>
</g>
<g fill="rgb(0%, 0%, 0%)" fill-opacity="1">
<use xlink:href="#glyph-2-1" x="53.815906" y="99.914"/>
</g>
<g fill="rgb(0%, 0%, 0%)" fill-opacity="1">
<use xlink:href="#glyph-1-0" x="47.589" y="111.869"/>
</g>
<g fill="rgb(0%, 0%, 0%)" fill-opacity="1">
<use xlink:href="#glyph-2-0" x="53.815906" y="111.869"/>
</g>
<g fill="rgb(0%, 0%, 0%)" fill-opacity="1">
<use xlink:href="#glyph-2-3" x="53.816" y="52.509"/>
</g>
<g fill="rgb(0%, 0%, 0%)" fill-opacity="1">
<use xlink:href="#glyph-2-2" x="53.816" y="40.553"/>
</g>
<g fill="rgb(0%, 0%, 0%)" fill-opacity="1">
<use xlink:href="#glyph-2-1" x="53.816" y="28.598"/>
</g>
<g fill="rgb(0%, 0%, 0%)" fill-opacity="1">
<use xlink:href="#glyph-2-0" x="53.816" y="16.643"/>
</g>
</svg>
