<?xml version="1.0" encoding="UTF-8"?>
<svg xmlns="http://www.w3.org/2000/svg" xmlns:xlink="http://www.w3.org/1999/xlink" width="96.908pt" height="97.828pt" viewBox="0 0 96.908 97.828">
<defs>
<g>
<g id="glyph-0-0">
<path d="M 1.734375 -0.734375 C 1.671875 -0.5 1.4375 -0.125 1.078125 -0.125 C 1.0625 -0.125 0.84375 -0.125 0.703125 -0.21875 C 0.984375 -0.3125 1.015625 -0.5625 1.015625 -0.609375 C 1.015625 -0.765625 0.890625 -0.859375 0.734375 -0.859375 C 0.53125 -0.859375 0.328125 -0.703125 0.328125 -0.4375 C 0.328125 -0.09375 0.71875 0.0625 1.0625 0.0625 C 1.390625 0.0625 1.671875 -0.125 1.84375 -0.421875 C 2.015625 -0.0625 2.390625 0.0625 2.671875 0.0625 C 3.484375 0.0625 3.90625 -0.796875 3.90625 -1 C 3.90625 -1.09375 3.8125 -1.09375 3.796875 -1.09375 C 3.6875 -1.09375 3.6875 -1.046875 3.65625 -0.96875 C 3.515625 -0.484375 3.09375 -0.125 2.703125 -0.125 C 2.421875 -0.125 2.28125 -0.3125 2.28125 -0.578125 C 2.28125 -0.765625 2.453125 -1.390625 2.640625 -2.171875 C 2.78125 -2.703125 3.09375 -2.875 3.328125 -2.875 C 3.34375 -2.875 3.546875 -2.875 3.703125 -2.78125 C 3.484375 -2.71875 3.390625 -2.515625 3.390625 -2.390625 C 3.390625 -2.25 3.515625 -2.140625 3.671875 -2.140625 C 3.828125 -2.140625 4.0625 -2.265625 4.0625 -2.5625 C 4.0625 -2.953125 3.609375 -3.078125 3.34375 -3.078125 C 2.984375 -3.078125 2.703125 -2.84375 2.5625 -2.578125 C 2.4375 -2.859375 2.109375 -3.078125 1.71875 -3.078125 C 0.9375 -3.078125 0.5 -2.21875 0.5 -2 C 0.5 -1.921875 0.59375 -1.921875 0.609375 -1.921875 C 0.703125 -1.921875 0.703125 -1.9375 0.75 -2.03125 C 0.921875 -2.578125 1.359375 -2.875 1.703125 -2.875 C 1.9375 -2.875 2.125 -2.75 2.125 -2.421875 C 2.125 -2.28125 2.03125 -1.9375 1.96875 -1.6875 Z M 1.734375 -0.734375 "/>
</g>
<g id="glyph-0-1">
<path d="M 3.875 -2.625 C 3.90625 -2.71875 3.90625 -2.734375 3.90625 -2.78125 C 3.90625 -2.921875 3.796875 -3 3.671875 -3 C 3.59375 -3 3.46875 -2.96875 3.390625 -2.84375 C 3.359375 -2.796875 3.3125 -2.578125 3.28125 -2.4375 L 3.125 -1.859375 C 3.09375 -1.6875 2.875 -0.8125 2.84375 -0.734375 C 2.84375 -0.734375 2.53125 -0.125 2 -0.125 C 1.515625 -0.125 1.515625 -0.578125 1.515625 -0.703125 C 1.515625 -1.078125 1.671875 -1.515625 1.890625 -2.0625 C 1.96875 -2.28125 2 -2.359375 2 -2.484375 C 2 -2.8125 1.71875 -3.078125 1.34375 -3.078125 C 0.640625 -3.078125 0.328125 -2.125 0.328125 -2 C 0.328125 -1.921875 0.421875 -1.921875 0.453125 -1.921875 C 0.546875 -1.921875 0.546875 -1.953125 0.578125 -2.03125 C 0.75 -2.609375 1.046875 -2.875 1.328125 -2.875 C 1.4375 -2.875 1.5 -2.796875 1.5 -2.640625 C 1.5 -2.46875 1.4375 -2.328125 1.40625 -2.234375 C 1.0625 -1.375 1 -1.125 1 -0.8125 C 1 -0.703125 1 -0.375 1.265625 -0.140625 C 1.484375 0.03125 1.78125 0.0625 1.96875 0.0625 C 2.25 0.0625 2.5 -0.03125 2.71875 -0.25 C 2.640625 0.140625 2.5625 0.4375 2.265625 0.78125 C 2.078125 1 1.796875 1.21875 1.421875 1.21875 C 1.375 1.21875 1.046875 1.21875 0.90625 1 C 1.28125 0.953125 1.28125 0.625 1.28125 0.609375 C 1.28125 0.390625 1.078125 0.34375 1.015625 0.34375 C 0.84375 0.34375 0.609375 0.484375 0.609375 0.8125 C 0.609375 1.15625 0.9375 1.421875 1.4375 1.421875 C 2.140625 1.421875 3 0.875 3.21875 0 Z M 3.875 -2.625 "/>
</g>
<g id="glyph-1-0">
<path d="M 4.390625 -1.109375 C 4.46875 -1.109375 4.59375 -1.109375 4.59375 -1.25 C 4.59375 -1.390625 4.46875 -1.390625 4.390625 -1.390625 L 1.015625 -1.390625 C 0.9375 -1.390625 0.796875 -1.390625 0.796875 -1.25 C 0.796875 -1.109375 0.9375 -1.109375 1.015625 -1.109375 Z M 4.390625 -1.109375 "/>
</g>
<g id="glyph-2-0">
<path d="M 2.9375 -0.96875 L 2.71875 -0.96875 C 2.71875 -0.875 2.65625 -0.5625 2.578125 -0.515625 C 2.546875 -0.484375 2.125 -0.484375 2.046875 -0.484375 L 1.078125 -0.484375 C 1.40625 -0.71875 1.765625 -1 2.0625 -1.203125 C 2.515625 -1.515625 2.9375 -1.796875 2.9375 -2.328125 C 2.9375 -2.96875 2.328125 -3.3125 1.625 -3.3125 C 0.953125 -3.3125 0.453125 -2.9375 0.453125 -2.4375 C 0.453125 -2.1875 0.671875 -2.140625 0.75 -2.140625 C 0.875 -2.140625 1.03125 -2.234375 1.03125 -2.4375 C 1.03125 -2.609375 0.90625 -2.71875 0.75 -2.71875 C 0.890625 -2.953125 1.1875 -3.09375 1.515625 -3.09375 C 2 -3.09375 2.40625 -2.8125 2.40625 -2.328125 C 2.40625 -1.90625 2.109375 -1.578125 1.734375 -1.265625 L 0.515625 -0.234375 C 0.46875 -0.1875 0.453125 -0.1875 0.453125 -0.15625 L 0.453125 0 L 2.765625 0 Z M 2.9375 -0.96875 "/>
</g>
<g id="glyph-2-1">
<path d="M 1.984375 -3.171875 C 1.984375 -3.3125 1.96875 -3.3125 1.796875 -3.3125 C 1.453125 -3 0.890625 -3 0.796875 -3 L 0.71875 -3 L 0.71875 -2.78125 L 0.796875 -2.78125 C 0.90625 -2.78125 1.234375 -2.796875 1.53125 -2.921875 L 1.53125 -0.421875 C 1.53125 -0.28125 1.53125 -0.21875 1 -0.21875 L 0.75 -0.21875 L 0.75 0 C 1.015625 -0.015625 1.46875 -0.015625 1.75 -0.015625 C 2.046875 -0.015625 2.484375 -0.015625 2.765625 0 L 2.765625 -0.21875 L 2.515625 -0.21875 C 1.984375 -0.21875 1.984375 -0.28125 1.984375 -0.421875 Z M 1.984375 -3.171875 "/>
</g>
<g id="glyph-2-2">
<path d="M 1.640625 -1.65625 C 2.109375 -1.65625 2.40625 -1.359375 2.40625 -0.875 C 2.40625 -0.359375 2.09375 -0.09375 1.65625 -0.09375 C 1.59375 -0.09375 1 -0.09375 0.75 -0.359375 C 0.953125 -0.390625 1.015625 -0.53125 1.015625 -0.65625 C 1.015625 -0.84375 0.875 -0.96875 0.703125 -0.96875 C 0.546875 -0.96875 0.40625 -0.859375 0.40625 -0.640625 C 0.40625 -0.125 0.984375 0.109375 1.671875 0.109375 C 2.484375 0.109375 2.984375 -0.390625 2.984375 -0.875 C 2.984375 -1.28125 2.625 -1.625 2.0625 -1.75 C 2.65625 -1.953125 2.8125 -2.328125 2.8125 -2.609375 C 2.8125 -3.015625 2.3125 -3.3125 1.6875 -3.3125 C 1.0625 -3.3125 0.578125 -3.0625 0.578125 -2.609375 C 0.578125 -2.375 0.765625 -2.3125 0.859375 -2.3125 C 1 -2.3125 1.140625 -2.421875 1.140625 -2.609375 C 1.140625 -2.71875 1.078125 -2.859375 0.90625 -2.890625 C 1.109375 -3.109375 1.5625 -3.125 1.671875 -3.125 C 2.03125 -3.125 2.28125 -2.953125 2.28125 -2.609375 C 2.28125 -2.3125 2.09375 -1.859375 1.578125 -1.828125 C 1.4375 -1.828125 1.421875 -1.828125 1.28125 -1.8125 C 1.234375 -1.8125 1.171875 -1.8125 1.171875 -1.734375 C 1.171875 -1.65625 1.21875 -1.65625 1.3125 -1.65625 Z M 1.640625 -1.65625 "/>
</g>
<g id="glyph-2-3">
<path d="M 3.078125 -0.8125 L 3.078125 -1.03125 L 2.453125 -1.03125 L 2.453125 -3.21875 C 2.453125 -3.34375 2.453125 -3.375 2.3125 -3.375 C 2.21875 -3.375 2.21875 -3.375 2.15625 -3.296875 L 0.3125 -1.03125 L 0.3125 -0.8125 L 1.96875 -0.8125 L 1.96875 -0.421875 C 1.96875 -0.265625 1.96875 -0.21875 1.546875 -0.21875 L 1.359375 -0.21875 L 1.359375 0 C 1.59375 -0.015625 1.921875 -0.015625 2.21875 -0.015625 C 2.5 -0.015625 2.828125 -0.015625 3.0625 0 L 3.0625 -0.21875 L 2.890625 -0.21875 C 2.453125 -0.21875 2.453125 -0.265625 2.453125 -0.421875 L 2.453125 -0.8125 Z M 2.015625 -2.84375 L 2.015625 -1.03125 L 0.546875 -1.03125 Z M 2.015625 -2.84375 "/>
</g>
</g>
</defs>
<path fill="none" stroke-width="0.49814" stroke-linecap="round" stroke-linejoin="round" stroke="rgb(0%, 0%, 0%)" stroke-opacity="1" stroke-miterlimit="10" d="M 0.0001175 14.944909 L 89.66418 14.944909 " transform="matrix(1, 0, 0, -1, 2.24207, 94.65194)"/>
<path fill="none" stroke-width="0.49814" stroke-linecap="round" stroke-linejoin="round" stroke="rgb(0%, 0%, 0%)" stroke-opacity="1" stroke-miterlimit="10" d="M 84.683711 17.43319 C 85.859493 15.866784 87.703243 14.944909 89.66418 14.944909 C 87.703243 14.944909 85.859493 14.023034 84.683711 12.452721 " transform="matrix(1, 0, 0, -1, 2.24207, 94.65194)"/>
<path fill="none" stroke-width="0.49814" stroke-linecap="round" stroke-linejoin="round" stroke="rgb(0%, 0%, 0%)" stroke-opacity="1" stroke-miterlimit="10" d="M 44.832149 -0.00040375 L 44.832149 89.663659 " transform="matrix(1, 0, 0, -1, 2.24207, 94.65194)"/>
<path fill="none" stroke-width="0.49814" stroke-linecap="round" stroke-linejoin="round" stroke="rgb(0%, 0%, 0%)" stroke-opacity="1" stroke-miterlimit="10" d="M 42.339961 84.68319 C 43.910274 85.858971 44.832149 87.702721 44.832149 89.663659 C 44.832149 87.702721 45.754024 85.858971 47.324336 84.68319 " transform="matrix(1, 0, 0, -1, 2.24207, 94.65194)"/>
<path fill="none" stroke-width="0.49814" stroke-linecap="round" stroke-linejoin="round" stroke="rgb(0%, 0%, 0%)" stroke-opacity="1" stroke-miterlimit="10" d="M 14.94543 12.952721 L 14.94543 16.937096 " transform="matrix(1, 0, 0, -1, 2.24207, 94.65194)"/>
<path fill="none" stroke-width="0.49814" stroke-linecap="round" stroke-linejoin="round" stroke="rgb(0%, 0%, 0%)" stroke-opacity="1" stroke-miterlimit="10" d="M 29.886836 12.952721 L 29.886836 16.937096 " transform="matrix(1, 0, 0, -1, 2.24207, 94.65194)"/>
<path fill="none" stroke-width="0.49814" stroke-linecap="round" stroke-linejoin="round" stroke="rgb(0%, 0%, 0%)" stroke-opacity="1" stroke-miterlimit="10" d="M 59.777461 12.952721 L 59.777461 16.937096 " transform="matrix(1, 0, 0, -1, 2.24207, 94.65194)"/>
<path fill="none" stroke-width="0.49814" stroke-linecap="round" stroke-linejoin="round" stroke="rgb(0%, 0%, 0%)" stroke-opacity="1" stroke-miterlimit="10" d="M 74.718868 12.952721 L 74.718868 16.937096 " transform="matrix(1, 0, 0, -1, 2.24207, 94.65194)"/>
<path fill="none" stroke-width="0.49814" stroke-linecap="round" stroke-linejoin="round" stroke="rgb(0%, 0%, 0%)" stroke-opacity="1" stroke-miterlimit="10" d="M 46.824336 29.886315 L 42.839961 29.886315 " transform="matrix(1, 0, 0, -1, 2.24207, 94.65194)"/>
<path fill="none" stroke-width="0.49814" stroke-linecap="round" stroke-linejoin="round" stroke="rgb(0%, 0%, 0%)" stroke-opacity="1" stroke-miterlimit="10" d="M 46.824336 44.831627 L 42.839961 44.831627 " transform="matrix(1, 0, 0, -1, 2.24207, 94.65194)"/>
<path fill="none" stroke-width="0.49814" stroke-linecap="round" stroke-linejoin="round" stroke="rgb(0%, 0%, 0%)" stroke-opacity="1" stroke-miterlimit="10" d="M 46.824336 59.77694 L 42.839961 59.77694 " transform="matrix(1, 0, 0, -1, 2.24207, 94.65194)"/>
<path fill="none" stroke-width="0.49814" stroke-linecap="round" stroke-linejoin="round" stroke="rgb(0%, 0%, 0%)" stroke-opacity="1" stroke-miterlimit="10" d="M 46.824336 74.718346 L 42.839961 74.718346 " transform="matrix(1, 0, 0, -1, 2.24207, 94.65194)"/>
<path fill="none" stroke-width="0.49814" stroke-linecap="round" stroke-linejoin="round" stroke="rgb(0%, 0%, 0%)" stroke-opacity="1" stroke-miterlimit="10" d="M 11.207149 -0.933998 C 11.69543 1.261315 12.191524 3.452721 12.703242 5.640221 C 13.187617 7.733971 13.687617 9.827721 14.19543 11.917565 C 14.683711 13.913659 15.179805 15.905846 15.691524 17.894127 C 16.175899 19.792565 16.675899 21.68319 17.183711 23.573815 C 17.671993 25.37069 18.168086 27.163659 18.679805 28.952721 C 19.16418 30.65194 19.66418 32.343346 20.175899 34.034752 C 20.660274 35.632409 21.156368 37.226159 21.668086 38.816002 C 22.152461 40.316002 22.648555 41.812096 23.16418 43.300377 C 23.644649 44.698815 24.144649 46.097252 24.656368 47.483971 C 25.140743 48.784752 25.636836 50.081627 26.152461 51.37069 C 26.63293 52.573815 27.129024 53.769127 27.644649 54.956627 C 28.125118 56.062096 28.621211 57.155846 29.140743 58.241784 C 29.621211 59.249596 30.117305 60.24569 30.636836 61.233971 C 31.113399 62.140221 31.609493 63.038659 32.129024 63.921471 C 32.605586 64.733971 33.10168 65.530846 33.625118 66.312096 C 34.097774 67.02694 34.593868 67.726159 35.117305 68.405846 C 35.593868 69.023034 36.089961 69.624596 36.613399 70.198815 C 37.086055 70.722252 37.582149 71.222252 38.105586 71.694909 C 38.582149 72.12069 39.078243 72.523034 39.60168 72.890221 C 40.078243 73.222252 40.574336 73.52694 41.093868 73.784752 C 41.578243 74.02694 42.074336 74.230065 42.589961 74.382409 C 43.078243 74.530846 43.578243 74.632409 44.086055 74.68319 C 44.582149 74.730065 45.082149 74.730065 45.578243 74.68319 C 46.086055 74.632409 46.586055 74.530846 47.074336 74.382409 C 47.589961 74.230065 48.086055 74.02694 48.566524 73.784752 C 49.089961 73.52694 49.586055 73.222252 50.062618 72.890221 C 50.586055 72.523034 51.082149 72.12069 51.558711 71.694909 C 52.082149 71.222252 52.578243 70.722252 53.050899 70.198815 C 53.574336 69.624596 54.07043 69.023034 54.543086 68.405846 C 55.066524 67.726159 55.562618 67.02694 56.03918 66.312096 C 56.562618 65.530846 57.058711 64.733971 57.535274 63.921471 C 58.054805 63.038659 58.550899 62.140221 59.027461 61.233971 C 59.546993 60.24569 60.043086 59.249596 60.523555 58.241784 C 61.03918 57.155846 61.53918 56.062096 62.015743 54.956627 C 62.535274 53.769127 63.031368 52.573815 63.511836 51.37069 C 64.027461 50.081627 64.523555 48.784752 65.00793 47.483971 C 65.519649 46.093346 66.015743 44.698815 66.500118 43.300377 C 67.015743 41.812096 67.511836 40.316002 67.996211 38.816002 C 68.50793 37.226159 69.004024 35.632409 69.488399 34.034752 C 70.000118 32.343346 70.500118 30.65194 70.984493 28.952721 C 71.496211 27.163659 71.992305 25.37069 72.47668 23.573815 C 72.988399 21.68319 73.488399 19.788659 73.972774 17.894127 C 74.484493 15.905846 74.980586 13.913659 75.464961 11.917565 C 75.97668 9.827721 76.472774 7.733971 76.961055 5.640221 C 77.468868 3.452721 77.968868 1.261315 78.457149 -0.933998 " transform="matrix(1, 0, 0, -1, 2.24207, 94.65194)"/>
<path fill="none" stroke-width="0.49814" stroke-linecap="round" stroke-linejoin="round" stroke="rgb(0%, 0%, 0%)" stroke-opacity="1" stroke-miterlimit="10" d="M 79.265743 2.30819 C 78.500118 1.413659 78.199336 0.21444 78.457149 -0.933998 C 78.199336 0.21444 77.421993 1.175377 76.347774 1.659752 " transform="matrix(1, 0, 0, -1, 2.24207, 94.65194)"/>
<path fill="none" stroke-width="0.49814" stroke-linecap="round" stroke-linejoin="round" stroke="rgb(0%, 0%, 0%)" stroke-opacity="1" stroke-miterlimit="10" d="M 13.316524 1.659752 C 12.242305 1.175377 11.461055 0.21444 11.207149 -0.933998 C 11.461055 0.21444 11.16418 1.413659 10.398555 2.30819 " transform="matrix(1, 0, 0, -1, 2.24207, 94.65194)"/>
<g fill="rgb(0%, 0%, 0%)" fill-opacity="1">
<use xlink:href="#glyph-0-0" x="90.397" y="87.865"/>
</g>
<g fill="rgb(0%, 0%, 0%)" fill-opacity="1">
<use xlink:href="#glyph-0-1" x="53.151" y="4.995"/>
</g>
<g fill="rgb(0%, 0%, 0%)" fill-opacity="1">
<use xlink:href="#glyph-1-0" x="10.554" y="86.197"/>
</g>
<g fill="rgb(0%, 0%, 0%)" fill-opacity="1">
<use xlink:href="#glyph-2-0" x="15.950242" y="86.197"/>
</g>
<g fill="rgb(0%, 0%, 0%)" fill-opacity="1">
<use xlink:href="#glyph-1-0" x="25.497402" y="86.197"/>
</g>
<g fill="rgb(0%, 0%, 0%)" fill-opacity="1">
<use xlink:href="#glyph-2-1" x="30.893644" y="86.197"/>
</g>
<g fill="rgb(0%, 0%, 0%)" fill-opacity="1">
<use xlink:href="#glyph-2-1" x="61.073" y="86.087"/>
</g>
<g fill="rgb(0%, 0%, 0%)" fill-opacity="1">
<use xlink:href="#glyph-2-0" x="76.014907" y="86.087"/>
</g>
<g fill="rgb(0%, 0%, 0%)" fill-opacity="1">
<use xlink:href="#glyph-2-1" x="40.449" y="65.553"/>
</g>
<g fill="rgb(0%, 0%, 0%)" fill-opacity="1">
<use xlink:href="#glyph-2-0" x="40.449" y="50.609"/>
</g>
<g fill="rgb(0%, 0%, 0%)" fill-opacity="1">
<use xlink:href="#glyph-2-2" x="40.449" y="35.665"/>
</g>
<g fill="rgb(0%, 0%, 0%)" fill-opacity="1">
<use xlink:href="#glyph-2-3" x="40.449" y="20.721"/>
</g>
</svg>
