<?xml version="1.0" encoding="UTF-8"?>
<svg xmlns="http://www.w3.org/2000/svg" xmlns:xlink="http://www.w3.org/1999/xlink" width="96.908pt" height="126.716pt" viewBox="0 0 96.908 126.716">
<defs>
<g>
<g id="glyph-0-0">
<path d="M 1.734375 -0.734375 C 1.671875 -0.5 1.4375 -0.125 1.078125 -0.125 C 1.0625 -0.125 0.84375 -0.125 0.703125 -0.21875 C 0.984375 -0.3125 1.015625 -0.5625 1.015625 -0.609375 C 1.015625 -0.765625 0.890625 -0.859375 0.734375 -0.859375 C 0.53125 -0.859375 0.328125 -0.703125 0.328125 -0.4375 C 0.328125 -0.09375 0.71875 0.0625 1.0625 0.0625 C 1.390625 0.0625 1.671875 -0.125 1.84375 -0.421875 C 2.015625 -0.0625 2.390625 0.0625 2.671875 0.0625 C 3.484375 0.0625 3.90625 -0.796875 3.90625 -1 C 3.90625 -1.09375 3.8125 -1.09375 3.796875 -1.09375 C 3.6875 -1.09375 3.6875 -1.046875 3.65625 -0.96875 C 3.515625 -0.484375 3.09375 -0.125 2.703125 -0.125 C 2.421875 -0.125 2.28125 -0.3125 2.28125 -0.578125 C 2.28125 -0.765625 2.453125 -1.390625 2.640625 -2.171875 C 2.78125 -2.703125 3.09375 -2.875 3.328125 -2.875 C 3.34375 -2.875 3.546875 -2.875 3.703125 -2.78125 C 3.484375 -2.71875 3.390625 -2.515625 3.390625 -2.390625 C 3.390625 -2.25 3.515625 -2.140625 3.671875 -2.140625 C 3.828125 -2.140625 4.0625 -2.265625 4.0625 -2.5625 C 4.0625 -2.953125 3.609375 -3.078125 3.34375 -3.078125 C 2.984375 -3.078125 2.703125 -2.84375 2.5625 -2.578125 C 2.4375 -2.859375 2.109375 -3.078125 1.71875 -3.078125 C 0.9375 -3.078125 0.5 -2.21875 0.5 -2 C 0.5 -1.921875 0.59375 -1.921875 0.609375 -1.921875 C 0.703125 -1.921875 0.703125 -1.9375 0.75 -2.03125 C 0.921875 -2.578125 1.359375 -2.875 1.703125 -2.875 C 1.9375 -2.875 2.125 -2.75 2.125 -2.421875 C 2.125 -2.28125 2.03125 -1.9375 1.96875 -1.6875 Z M 1.734375 -0.734375 "/>
</g>
<g id="glyph-0-1">
<path d="M 3.875 -2.625 C 3.90625 -2.71875 3.90625 -2.734375 3.90625 -2.78125 C 3.90625 -2.921875 3.796875 -3 3.671875 -3 C 3.59375 -3 3.46875 -2.96875 3.390625 -2.84375 C 3.359375 -2.796875 3.3125 -2.578125 3.28125 -2.4375 L 3.125 -1.859375 C 3.09375 -1.6875 2.875 -0.8125 2.84375 -0.734375 C 2.84375 -0.734375 2.53125 -0.125 2 -0.125 C 1.515625 -0.125 1.515625 -0.578125 1.515625 -0.703125 C 1.515625 -1.078125 1.671875 -1.515625 1.890625 -2.0625 C 1.96875 -2.28125 2 -2.359375 2 -2.484375 C 2 -2.8125 1.71875 -3.078125 1.34375 -3.078125 C 0.640625 -3.078125 0.328125 -2.125 0.328125 -2 C 0.328125 -1.921875 0.421875 -1.921875 0.453125 -1.921875 C 0.546875 -1.921875 0.546875 -1.953125 0.578125 -2.03125 C 0.75 -2.609375 1.046875 -2.875 1.328125 -2.875 C 1.4375 -2.875 1.5 -2.796875 1.5 -2.640625 C 1.5 -2.46875 1.4375 -2.328125 1.40625 -2.234375 C 1.0625 -1.375 1 -1.125 1 -0.8125 C 1 -0.703125 1 -0.375 1.265625 -0.140625 C 1.484375 0.03125 1.78125 0.0625 1.96875 0.0625 C 2.25 0.0625 2.5 -0.03125 2.71875 -0.25 C 2.640625 0.140625 2.5625 0.4375 2.265625 0.78125 C 2.078125 1 1.796875 1.21875 1.421875 1.21875 C 1.375 1.21875 1.046875 1.21875 0.90625 1 C 1.28125 0.953125 1.28125 0.625 1.28125 0.609375 C 1.28125 0.390625 1.078125 0.34375 1.015625 0.34375 C 0.84375 0.34375 0.609375 0.484375 0.609375 0.8125 C 0.609375 1.15625 0.9375 1.421875 1.4375 1.421875 C 2.140625 1.421875 3 0.875 3.21875 0 Z M 3.875 -2.625 "/>
</g>
<g id="glyph-1-0">
<path d="M 4.390625 -1.109375 C 4.46875 -1.109375 4.59375 -1.109375 4.59375 -1.25 C 4.59375 -1.390625 4.46875 -1.390625 4.390625 -1.390625 L 1.015625 -1.390625 C 0.9375 -1.390625 0.796875 -1.390625 0.796875 -1.25 C 0.796875 -1.109375 0.9375 -1.109375 1.015625 -1.109375 Z M 4.390625 -1.109375 "/>
</g>
<g id="glyph-2-0">
<path d="M 2.9375 -0.96875 L 2.71875 -0.96875 C 2.71875 -0.875 2.65625 -0.5625 2.578125 -0.515625 C 2.546875 -0.484375 2.125 -0.484375 2.046875 -0.484375 L 1.078125 -0.484375 C 1.40625 -0.71875 1.765625 -1 2.0625 -1.203125 C 2.515625 -1.515625 2.9375 -1.796875 2.9375 -2.328125 C 2.9375 -2.96875 2.328125 -3.3125 1.625 -3.3125 C 0.953125 -3.3125 0.453125 -2.9375 0.453125 -2.4375 C 0.453125 -2.1875 0.671875 -2.140625 0.75 -2.140625 C 0.875 -2.140625 1.03125 -2.234375 1.03125 -2.4375 C 1.03125 -2.609375 0.90625 -2.71875 0.75 -2.71875 C 0.890625 -2.953125 1.1875 -3.09375 1.515625 -3.09375 C 2 -3.09375 2.40625 -2.8125 2.40625 -2.328125 C 2.40625 -1.90625 2.109375 -1.578125 1.734375 -1.265625 L 0.515625 -0.234375 C 0.46875 -0.1875 0.453125 -0.1875 0.453125 -0.15625 L 0.453125 0 L 2.765625 0 Z M 2.9375 -0.96875 "/>
</g>
<g id="glyph-2-1">
<path d="M 1.984375 -3.171875 C 1.984375 -3.3125 1.96875 -3.3125 1.796875 -3.3125 C 1.453125 -3 0.890625 -3 0.796875 -3 L 0.71875 -3 L 0.71875 -2.78125 L 0.796875 -2.78125 C 0.90625 -2.78125 1.234375 -2.796875 1.53125 -2.921875 L 1.53125 -0.421875 C 1.53125 -0.28125 1.53125 -0.21875 1 -0.21875 L 0.75 -0.21875 L 0.75 0 C 1.015625 -0.015625 1.46875 -0.015625 1.75 -0.015625 C 2.046875 -0.015625 2.484375 -0.015625 2.765625 0 L 2.765625 -0.21875 L 2.515625 -0.21875 C 1.984375 -0.21875 1.984375 -0.28125 1.984375 -0.421875 Z M 1.984375 -3.171875 "/>
</g>
<g id="glyph-2-2">
<path d="M 1.640625 -1.65625 C 2.109375 -1.65625 2.40625 -1.359375 2.40625 -0.875 C 2.40625 -0.359375 2.09375 -0.09375 1.65625 -0.09375 C 1.59375 -0.09375 1 -0.09375 0.75 -0.359375 C 0.953125 -0.390625 1.015625 -0.53125 1.015625 -0.65625 C 1.015625 -0.84375 0.875 -0.96875 0.703125 -0.96875 C 0.546875 -0.96875 0.40625 -0.859375 0.40625 -0.640625 C 0.40625 -0.125 0.984375 0.109375 1.671875 0.109375 C 2.484375 0.109375 2.984375 -0.390625 2.984375 -0.875 C 2.984375 -1.28125 2.625 -1.625 2.0625 -1.75 C 2.65625 -1.953125 2.8125 -2.328125 2.8125 -2.609375 C 2.8125 -3.015625 2.3125 -3.3125 1.6875 -3.3125 C 1.0625 -3.3125 0.578125 -3.0625 0.578125 -2.609375 C 0.578125 -2.375 0.765625 -2.3125 0.859375 -2.3125 C 1 -2.3125 1.140625 -2.421875 1.140625 -2.609375 C 1.140625 -2.71875 1.078125 -2.859375 0.90625 -2.890625 C 1.109375 -3.109375 1.5625 -3.125 1.671875 -3.125 C 2.03125 -3.125 2.28125 -2.953125 2.28125 -2.609375 C 2.28125 -2.3125 2.09375 -1.859375 1.578125 -1.828125 C 1.4375 -1.828125 1.421875 -1.828125 1.28125 -1.8125 C 1.234375 -1.8125 1.171875 -1.8125 1.171875 -1.734375 C 1.171875 -1.65625 1.21875 -1.65625 1.3125 -1.65625 Z M 1.640625 -1.65625 "/>
</g>
<g id="glyph-2-3">
<path d="M 3.078125 -0.8125 L 3.078125 -1.03125 L 2.453125 -1.03125 L 2.453125 -3.21875 C 2.453125 -3.34375 2.453125 -3.375 2.3125 -3.375 C 2.21875 -3.375 2.21875 -3.375 2.15625 -3.296875 L 0.3125 -1.03125 L 0.3125 -0.8125 L 1.96875 -0.8125 L 1.96875 -0.421875 C 1.96875 -0.265625 1.96875 -0.21875 1.546875 -0.21875 L 1.359375 -0.21875 L 1.359375 0 C 1.59375 -0.015625 1.921875 -0.015625 2.21875 -0.015625 C 2.5 -0.015625 2.828125 -0.015625 3.0625 0 L 3.0625 -0.21875 L 2.890625 -0.21875 C 2.453125 -0.21875 2.453125 -0.265625 2.453125 -0.421875 L 2.453125 -0.8125 Z M 2.015625 -2.84375 L 2.015625 -1.03125 L 0.546875 -1.03125 Z M 2.015625 -2.84375 "/>
</g>
<g id="glyph-2-4">
<path d="M 0.984375 -2.75 C 1.234375 -2.6875 1.46875 -2.6875 1.515625 -2.6875 C 1.859375 -2.6875 2.109375 -2.78125 2.234375 -2.84375 C 2.359375 -2.90625 2.703125 -3.125 2.703125 -3.234375 C 2.703125 -3.3125 2.640625 -3.3125 2.625 -3.3125 C 2.609375 -3.3125 2.609375 -3.3125 2.546875 -3.296875 C 2.359375 -3.234375 2.046875 -3.15625 1.71875 -3.15625 C 1.4375 -3.15625 1.171875 -3.203125 0.90625 -3.296875 C 0.84375 -3.3125 0.84375 -3.3125 0.828125 -3.3125 C 0.75 -3.3125 0.75 -3.265625 0.75 -3.1875 L 0.75 -1.6875 C 0.75 -1.59375 0.75 -1.53125 0.859375 -1.53125 C 0.90625 -1.53125 0.90625 -1.546875 0.953125 -1.59375 C 1.140625 -1.8125 1.40625 -1.921875 1.75 -1.921875 C 2.03125 -1.921875 2.203125 -1.765625 2.265625 -1.65625 C 2.375 -1.484375 2.40625 -1.265625 2.40625 -1.015625 C 2.40625 -0.8125 2.390625 -0.53125 2.1875 -0.34375 C 1.96875 -0.109375 1.6875 -0.09375 1.578125 -0.09375 C 1.25 -0.09375 0.890625 -0.234375 0.734375 -0.53125 C 0.9375 -0.546875 1.015625 -0.6875 1.015625 -0.8125 C 1.015625 -0.96875 0.890625 -1.09375 0.734375 -1.09375 C 0.625 -1.09375 0.453125 -1.015625 0.453125 -0.796875 C 0.453125 -0.296875 0.9375 0.109375 1.578125 0.109375 C 2.328125 0.109375 2.9375 -0.390625 2.9375 -1 C 2.9375 -1.5625 2.453125 -2.09375 1.765625 -2.09375 C 1.453125 -2.09375 1.1875 -2.015625 0.984375 -1.84375 Z M 0.984375 -2.75 "/>
</g>
<g id="glyph-2-5">
<path d="M 0.921875 -1.640625 C 0.9375 -1.859375 0.9375 -2.265625 1.109375 -2.578125 C 1.265625 -2.84375 1.578125 -3.125 2.046875 -3.125 C 2.140625 -3.125 2.375 -3.125 2.515625 -3 C 2.4375 -2.984375 2.3125 -2.90625 2.3125 -2.734375 C 2.3125 -2.578125 2.421875 -2.46875 2.578125 -2.46875 C 2.65625 -2.46875 2.84375 -2.515625 2.84375 -2.75 C 2.84375 -3.015625 2.640625 -3.3125 2.046875 -3.3125 C 1.1875 -3.3125 0.40625 -2.609375 0.40625 -1.578125 C 0.40625 -0.390625 0.984375 0.109375 1.703125 0.109375 C 2.203125 0.109375 2.4375 -0.078125 2.609375 -0.21875 C 2.921875 -0.484375 2.984375 -0.765625 2.984375 -1.015625 C 2.984375 -1.328125 2.890625 -1.5625 2.625 -1.796875 C 2.40625 -2 2.1875 -2.140625 1.75 -2.140625 C 1.453125 -2.140625 1.140625 -2 0.921875 -1.640625 Z M 1.703125 -0.09375 C 0.9375 -0.09375 0.9375 -0.921875 0.9375 -1.125 C 0.9375 -1.515625 1.21875 -1.96875 1.734375 -1.96875 C 2 -1.96875 2.15625 -1.90625 2.3125 -1.703125 C 2.453125 -1.515625 2.46875 -1.3125 2.46875 -1.03125 C 2.46875 -0.734375 2.46875 -0.546875 2.296875 -0.34375 C 2.15625 -0.1875 1.984375 -0.09375 1.703125 -0.09375 Z M 1.703125 -0.09375 "/>
</g>
<g id="glyph-2-6">
<path d="M 3.109375 -2.984375 C 3.15625 -3.03125 3.15625 -3.046875 3.171875 -3.078125 L 3.171875 -3.203125 L 1.953125 -3.203125 C 1.828125 -3.203125 1.09375 -3.234375 1.015625 -3.25 C 0.890625 -3.265625 0.890625 -3.3125 0.875 -3.375 L 0.671875 -3.375 L 0.484375 -2.25 L 0.6875 -2.25 C 0.703125 -2.328125 0.75 -2.640625 0.84375 -2.703125 C 0.875 -2.71875 1.34375 -2.734375 1.421875 -2.734375 L 2.609375 -2.734375 C 2.390625 -2.484375 2.125 -2.21875 1.921875 -1.96875 C 1.328125 -1.21875 1.265625 -0.5 1.265625 -0.1875 C 1.265625 0.078125 1.4375 0.109375 1.53125 0.109375 C 1.796875 0.109375 1.796875 -0.140625 1.796875 -0.203125 L 1.796875 -0.296875 C 1.796875 -1.1875 1.984375 -1.734375 2.28125 -2.0625 Z M 3.109375 -2.984375 "/>
</g>
<g id="glyph-2-7">
<path d="M 2.140625 -1.796875 C 2.65625 -2.015625 2.8125 -2.28125 2.8125 -2.5625 C 2.8125 -3.078125 2.25 -3.3125 1.703125 -3.3125 C 1.078125 -3.3125 0.578125 -2.96875 0.578125 -2.46875 C 0.578125 -2.015625 0.96875 -1.8125 1.21875 -1.671875 C 0.703125 -1.46875 0.40625 -1.171875 0.40625 -0.765625 C 0.40625 -0.171875 1.0625 0.109375 1.6875 0.109375 C 2.390625 0.109375 2.984375 -0.265625 2.984375 -0.859375 C 2.984375 -1.390625 2.46875 -1.65625 2.140625 -1.796875 Z M 1.15625 -2.3125 C 0.953125 -2.421875 0.875 -2.546875 0.875 -2.671875 C 0.875 -2.984375 1.296875 -3.125 1.6875 -3.125 C 2.09375 -3.125 2.5 -2.9375 2.5 -2.5625 C 2.5 -2.125 1.9375 -1.90625 1.9375 -1.90625 C 1.921875 -1.90625 1.921875 -1.90625 1.875 -1.9375 Z M 1.4375 -1.5625 L 2.21875 -1.171875 C 2.390625 -1.078125 2.640625 -0.9375 2.640625 -0.671875 C 2.640625 -0.265625 2.140625 -0.09375 1.703125 -0.09375 C 1.25 -0.09375 0.75 -0.3125 0.75 -0.765625 C 0.75 -1.265625 1.28125 -1.5 1.4375 -1.5625 Z M 1.4375 -1.5625 "/>
</g>
<g id="glyph-2-8">
<path d="M 2.46875 -1.578125 C 2.46875 -1.265625 2.4375 -0.890625 2.265625 -0.59375 C 2.109375 -0.3125 1.8125 -0.09375 1.40625 -0.09375 C 1.359375 -0.09375 1.046875 -0.09375 0.875 -0.21875 C 1 -0.25 1.078125 -0.34375 1.078125 -0.46875 C 1.078125 -0.640625 0.96875 -0.734375 0.8125 -0.734375 C 0.734375 -0.734375 0.546875 -0.6875 0.546875 -0.453125 C 0.546875 0.109375 1.28125 0.109375 1.421875 0.109375 C 2.265625 0.109375 2.984375 -0.609375 2.984375 -1.640625 C 2.984375 -2.84375 2.40625 -3.3125 1.71875 -3.3125 C 1.21875 -3.3125 0.96875 -3.140625 0.765625 -2.96875 C 0.46875 -2.71875 0.40625 -2.453125 0.40625 -2.1875 C 0.40625 -1.90625 0.484375 -1.65625 0.75 -1.421875 C 0.984375 -1.21875 1.21875 -1.078125 1.640625 -1.078125 C 1.84375 -1.078125 2.203125 -1.15625 2.46875 -1.578125 Z M 1.65625 -1.25 C 1.453125 -1.25 1.265625 -1.28125 1.078125 -1.515625 C 0.9375 -1.6875 0.921875 -1.90625 0.921875 -2.1875 C 0.921875 -2.546875 0.9375 -2.703125 1.125 -2.90625 C 1.203125 -2.984375 1.359375 -3.125 1.71875 -3.125 C 2.453125 -3.125 2.453125 -2.3125 2.453125 -2.09375 C 2.453125 -1.6875 2.15625 -1.25 1.65625 -1.25 Z M 1.65625 -1.25 "/>
</g>
<g id="glyph-2-9">
<path d="M 3 -1.59375 C 3 -1.953125 3 -3.3125 1.6875 -3.3125 C 0.390625 -3.3125 0.390625 -1.953125 0.390625 -1.59375 C 0.390625 -1.234375 0.390625 0.109375 1.6875 0.109375 C 3 0.109375 3 -1.234375 3 -1.59375 Z M 1.6875 -0.0625 C 1.515625 -0.0625 1.09375 -0.125 0.96875 -0.625 C 0.890625 -0.890625 0.890625 -1.25 0.890625 -1.65625 C 0.890625 -2.03125 0.890625 -2.375 0.96875 -2.65625 C 1.09375 -3.078125 1.484375 -3.15625 1.6875 -3.15625 C 2.0625 -3.15625 2.328125 -2.96875 2.421875 -2.609375 C 2.5 -2.359375 2.5 -1.953125 2.5 -1.65625 C 2.5 -1.3125 2.5 -0.90625 2.421875 -0.609375 C 2.296875 -0.125 1.890625 -0.0625 1.6875 -0.0625 Z M 1.6875 -0.0625 "/>
</g>
</g>
</defs>
<path fill-rule="nonzero" fill="rgb(0%, 0%, 0%)" fill-opacity="1" d="M 47.800781 93.089844 C 47.402344 93.089844 47.023438 93.25 46.742188 93.53125 C 46.460938 93.808594 46.304688 94.191406 46.304688 94.585938 C 46.304688 94.984375 46.460938 95.363281 46.742188 95.644531 C 47.023438 95.921875 47.402344 96.082031 47.800781 96.082031 C 48.195312 96.082031 48.574219 95.921875 48.855469 95.644531 C 49.136719 95.363281 49.292969 94.984375 49.292969 94.585938 C 49.292969 94.191406 49.136719 93.808594 48.855469 93.53125 C 48.574219 93.25 48.195312 93.089844 47.800781 93.089844 Z M 47.800781 93.089844 "/>
<path fill="none" stroke-width="0.49814" stroke-linecap="round" stroke-linejoin="round" stroke="rgb(0%, 0%, 0%)" stroke-opacity="1" stroke-miterlimit="10" d="M 0.00119 119.552055 C 0.489471 117.591118 0.989471 115.634086 1.493377 113.673149 C 1.985565 111.778618 2.481659 109.884086 2.989471 107.993461 C 3.477752 106.165336 3.977752 104.341118 4.481659 102.512993 C 4.973846 100.75518 5.46994 98.993461 5.977752 97.235649 C 6.466034 95.540336 6.962127 93.84893 7.46994 92.157524 C 7.962127 90.524711 8.458221 88.895805 8.966034 87.270805 C 9.454315 85.708305 9.954315 84.149711 10.462127 82.591118 C 10.950409 81.095024 11.446502 79.59893 11.954315 78.106743 C 12.442596 76.677055 12.93869 75.251274 13.450409 73.825493 C 13.934784 72.458305 14.434784 71.09893 14.942596 69.735649 C 15.430877 68.438774 15.926971 67.145805 16.43869 65.852836 C 16.923065 64.622368 17.423065 63.391899 17.930878 62.169243 C 18.419159 61.001274 18.915253 59.841118 19.426971 58.680961 C 19.911346 57.583305 20.40744 56.485649 20.923065 55.391899 C 21.40744 54.360649 21.903534 53.329399 22.415253 52.302055 C 22.899628 51.337211 23.395721 50.376274 23.911346 49.415336 C 24.391815 48.512993 24.891815 47.618461 25.403534 46.72393 C 25.887909 45.887993 26.384003 45.059868 26.899628 44.231743 C 27.380096 43.466118 27.87619 42.700493 28.391815 41.94268 C 28.872284 41.239555 29.368378 40.540336 29.887909 39.852836 C 30.364471 39.212211 30.864471 38.579399 31.384003 37.958305 C 31.860565 37.384086 32.356659 36.81768 32.87619 36.262993 C 33.352753 35.75518 33.848846 35.25518 34.372284 34.770805 C 34.84494 34.325493 35.341034 33.891899 35.864471 33.47393 C 36.341034 33.095024 36.837128 32.727836 37.360565 32.376274 C 37.833221 32.063774 38.329315 31.759086 38.852753 31.481743 C 39.329315 31.227836 39.825409 30.993461 40.348846 30.78643 C 40.825409 30.595024 41.325409 30.423149 41.841034 30.28643 C 42.325409 30.157524 42.825409 30.055961 43.337128 29.985649 C 43.829315 29.923149 44.329315 29.887993 44.833221 29.887993 C 45.333221 29.887993 45.833221 29.923149 46.325409 29.985649 C 46.837128 30.055961 47.337128 30.157524 47.821503 30.28643 C 48.337128 30.423149 48.837128 30.595024 49.31369 30.78643 C 49.837128 30.993461 50.333221 31.227836 50.809784 31.481743 C 51.333221 31.759086 51.829315 32.063774 52.301971 32.376274 C 52.829315 32.727836 53.325409 33.095024 53.798065 33.47393 C 54.321503 33.891899 54.817596 34.325493 55.294159 34.770805 C 55.81369 35.25518 56.309784 35.75518 56.786346 36.262993 C 57.305878 36.81768 57.801971 37.384086 58.28244 37.958305 C 58.801971 38.579399 59.298065 39.212211 59.774628 39.852836 C 60.294159 40.540336 60.790253 41.239555 61.270721 41.94268 C 61.786346 42.700493 62.28244 43.466118 62.762909 44.231743 C 63.278534 45.059868 63.778534 45.887993 64.259002 46.72393 C 64.774627 47.618461 65.270721 48.512993 65.755096 49.415336 C 66.266815 50.376274 66.762909 51.337211 67.247284 52.302055 C 67.759002 53.329399 68.259002 54.360649 68.743377 55.391899 C 69.255096 56.485649 69.75119 57.583305 70.235565 58.680961 C 70.747284 59.841118 71.247284 61.001274 71.731659 62.169243 C 72.243377 63.391899 72.739471 64.622368 73.223846 65.852836 C 73.735565 67.145805 74.231659 68.438774 74.71994 69.735649 C 75.227752 71.09893 75.727752 72.458305 76.216034 73.825493 C 76.723846 75.251274 77.21994 76.677055 77.708221 78.106743 C 78.216034 79.59893 78.716034 81.095024 79.204315 82.591118 C 79.712127 84.149711 80.208221 85.708305 80.696502 87.270805 C 81.204315 88.895805 81.704315 90.524711 82.192596 92.157524 C 82.700409 93.84893 83.196502 95.540336 83.684784 97.235649 C 84.192596 98.993461 84.692596 100.75518 85.180877 102.512993 C 85.68869 104.341118 86.184784 106.165336 86.673065 107.993461 C 87.180877 109.884086 87.680877 111.778618 88.169159 113.673149 C 88.676971 115.634086 89.173065 117.591118 89.665252 119.552055 " transform="matrix(1, 0, 0, -1, 2.96756, 124.47393)"/>
<path fill="none" stroke-width="0.49814" stroke-linecap="round" stroke-linejoin="round" stroke="rgb(0%, 0%, 0%)" stroke-opacity="1" stroke-miterlimit="10" d="M 87.489471 117.012993 C 88.571502 117.470024 89.380096 118.41143 89.665252 119.552055 C 89.380096 118.41143 89.645721 117.200493 90.387909 116.290336 " transform="matrix(1, 0, 0, -1, 2.96756, 124.47393)"/>
<path fill="none" stroke-width="0.49814" stroke-linecap="round" stroke-linejoin="round" stroke="rgb(0%, 0%, 0%)" stroke-opacity="1" stroke-miterlimit="10" d="M -0.725373 116.290336 C 0.016815 117.200493 0.286346 118.41143 0.00119 119.552055 C 0.286346 118.41143 1.091034 117.470024 2.173065 117.012993 " transform="matrix(1, 0, 0, -1, 2.96756, 124.47393)"/>
<path fill="none" stroke-width="0.49814" stroke-linecap="round" stroke-linejoin="round" stroke="rgb(0%, 0%, 0%)" stroke-opacity="1" stroke-miterlimit="10" d="M 0.00119 9.962211 L 89.665252 9.962211 " transform="matrix(1, 0, 0, -1, 2.96756, 124.47393)"/>
<path fill="none" stroke-width="0.49814" stroke-linecap="round" stroke-linejoin="round" stroke="rgb(0%, 0%, 0%)" stroke-opacity="1" stroke-miterlimit="10" d="M 84.680877 12.454399 C 85.856659 10.884086 87.704315 9.962211 89.665252 9.962211 C 87.704315 9.962211 85.856659 9.040336 84.680877 7.470024 " transform="matrix(1, 0, 0, -1, 2.96756, 124.47393)"/>
<path fill="none" stroke-width="0.49814" stroke-linecap="round" stroke-linejoin="round" stroke="rgb(0%, 0%, 0%)" stroke-opacity="1" stroke-miterlimit="10" d="M 44.833221 0.00127375 L 44.833221 119.552055 " transform="matrix(1, 0, 0, -1, 2.96756, 124.47393)"/>
<path fill="none" stroke-width="0.49814" stroke-linecap="round" stroke-linejoin="round" stroke="rgb(0%, 0%, 0%)" stroke-opacity="1" stroke-miterlimit="10" d="M 42.341034 114.571586 C 43.90744 115.747368 44.833221 117.591118 44.833221 119.552055 C 44.833221 117.591118 45.755096 115.747368 47.321503 114.571586 " transform="matrix(1, 0, 0, -1, 2.96756, 124.47393)"/>
<path fill="none" stroke-width="0.49814" stroke-linecap="round" stroke-linejoin="round" stroke="rgb(0%, 0%, 0%)" stroke-opacity="1" stroke-miterlimit="10" d="M 14.942596 7.970024 L 14.942596 11.954399 " transform="matrix(1, 0, 0, -1, 2.96756, 124.47393)"/>
<path fill="none" stroke-width="0.49814" stroke-linecap="round" stroke-linejoin="round" stroke="rgb(0%, 0%, 0%)" stroke-opacity="1" stroke-miterlimit="10" d="M 29.887909 7.970024 L 29.887909 11.954399 " transform="matrix(1, 0, 0, -1, 2.96756, 124.47393)"/>
<path fill="none" stroke-width="0.49814" stroke-linecap="round" stroke-linejoin="round" stroke="rgb(0%, 0%, 0%)" stroke-opacity="1" stroke-miterlimit="10" d="M 59.774628 7.970024 L 59.774628 11.954399 " transform="matrix(1, 0, 0, -1, 2.96756, 124.47393)"/>
<path fill="none" stroke-width="0.49814" stroke-linecap="round" stroke-linejoin="round" stroke="rgb(0%, 0%, 0%)" stroke-opacity="1" stroke-miterlimit="10" d="M 74.71994 7.970024 L 74.71994 11.954399 " transform="matrix(1, 0, 0, -1, 2.96756, 124.47393)"/>
<path fill="none" stroke-width="0.49814" stroke-linecap="round" stroke-linejoin="round" stroke="rgb(0%, 0%, 0%)" stroke-opacity="1" stroke-miterlimit="10" d="M 46.825409 19.927055 L 42.841034 19.927055 " transform="matrix(1, 0, 0, -1, 2.96756, 124.47393)"/>
<path fill="none" stroke-width="0.49814" stroke-linecap="round" stroke-linejoin="round" stroke="rgb(0%, 0%, 0%)" stroke-opacity="1" stroke-miterlimit="10" d="M 46.825409 29.887993 L 42.841034 29.887993 " transform="matrix(1, 0, 0, -1, 2.96756, 124.47393)"/>
<path fill="none" stroke-width="0.49814" stroke-linecap="round" stroke-linejoin="round" stroke="rgb(0%, 0%, 0%)" stroke-opacity="1" stroke-miterlimit="10" d="M 46.825409 39.84893 L 42.841034 39.84893 " transform="matrix(1, 0, 0, -1, 2.96756, 124.47393)"/>
<path fill="none" stroke-width="0.49814" stroke-linecap="round" stroke-linejoin="round" stroke="rgb(0%, 0%, 0%)" stroke-opacity="1" stroke-miterlimit="10" d="M 46.825409 49.813774 L 42.841034 49.813774 " transform="matrix(1, 0, 0, -1, 2.96756, 124.47393)"/>
<path fill="none" stroke-width="0.49814" stroke-linecap="round" stroke-linejoin="round" stroke="rgb(0%, 0%, 0%)" stroke-opacity="1" stroke-miterlimit="10" d="M 46.825409 59.774711 L 42.841034 59.774711 " transform="matrix(1, 0, 0, -1, 2.96756, 124.47393)"/>
<path fill="none" stroke-width="0.49814" stroke-linecap="round" stroke-linejoin="round" stroke="rgb(0%, 0%, 0%)" stroke-opacity="1" stroke-miterlimit="10" d="M 46.825409 69.739555 L 42.841034 69.739555 " transform="matrix(1, 0, 0, -1, 2.96756, 124.47393)"/>
<path fill="none" stroke-width="0.49814" stroke-linecap="round" stroke-linejoin="round" stroke="rgb(0%, 0%, 0%)" stroke-opacity="1" stroke-miterlimit="10" d="M 46.825409 79.700493 L 42.841034 79.700493 " transform="matrix(1, 0, 0, -1, 2.96756, 124.47393)"/>
<path fill="none" stroke-width="0.49814" stroke-linecap="round" stroke-linejoin="round" stroke="rgb(0%, 0%, 0%)" stroke-opacity="1" stroke-miterlimit="10" d="M 46.825409 89.665336 L 42.841034 89.665336 " transform="matrix(1, 0, 0, -1, 2.96756, 124.47393)"/>
<path fill="none" stroke-width="0.49814" stroke-linecap="round" stroke-linejoin="round" stroke="rgb(0%, 0%, 0%)" stroke-opacity="1" stroke-miterlimit="10" d="M 46.825409 99.626274 L 42.841034 99.626274 " transform="matrix(1, 0, 0, -1, 2.96756, 124.47393)"/>
<path fill="none" stroke-width="0.49814" stroke-linecap="round" stroke-linejoin="round" stroke="rgb(0%, 0%, 0%)" stroke-opacity="1" stroke-miterlimit="10" d="M 46.825409 109.587211 L 42.841034 109.587211 " transform="matrix(1, 0, 0, -1, 2.96756, 124.47393)"/>
<g fill="rgb(0%, 0%, 0%)" fill-opacity="1">
<use xlink:href="#glyph-0-0" x="90.397" y="120.243"/>
</g>
<g fill="rgb(0%, 0%, 0%)" fill-opacity="1">
<use xlink:href="#glyph-0-1" x="53.151" y="4.995"/>
</g>
<g fill="rgb(0%, 0%, 0%)" fill-opacity="1">
<use xlink:href="#glyph-1-0" x="10.554" y="121.067"/>
</g>
<g fill="rgb(0%, 0%, 0%)" fill-opacity="1">
<use xlink:href="#glyph-2-0" x="15.950242" y="121.067"/>
</g>
<g fill="rgb(0%, 0%, 0%)" fill-opacity="1">
<use xlink:href="#glyph-1-0" x="25.497402" y="121.067"/>
</g>
<g fill="rgb(0%, 0%, 0%)" fill-opacity="1">
<use xlink:href="#glyph-2-1" x="30.893644" y="121.067"/>
</g>
<g fill="rgb(0%, 0%, 0%)" fill-opacity="1">
<use xlink:href="#glyph-2-1" x="61.073" y="120.956"/>
</g>
<g fill="rgb(0%, 0%, 0%)" fill-opacity="1">
<use xlink:href="#glyph-2-0" x="76.014907" y="120.956"/>
</g>
<g fill="rgb(0%, 0%, 0%)" fill-opacity="1">
<use xlink:href="#glyph-2-1" x="40.449" y="105.403"/>
</g>
<g fill="rgb(0%, 0%, 0%)" fill-opacity="1">
<use xlink:href="#glyph-2-0" x="40.449" y="95.441"/>
</g>
<g fill="rgb(0%, 0%, 0%)" fill-opacity="1">
<use xlink:href="#glyph-2-2" x="40.449" y="85.478"/>
</g>
<g fill="rgb(0%, 0%, 0%)" fill-opacity="1">
<use xlink:href="#glyph-2-3" x="40.449" y="75.515"/>
</g>
<g fill="rgb(0%, 0%, 0%)" fill-opacity="1">
<use xlink:href="#glyph-2-4" x="40.449" y="65.553"/>
</g>
<g fill="rgb(0%, 0%, 0%)" fill-opacity="1">
<use xlink:href="#glyph-2-5" x="40.449" y="55.59"/>
</g>
<g fill="rgb(0%, 0%, 0%)" fill-opacity="1">
<use xlink:href="#glyph-2-6" x="40.449" y="45.627"/>
</g>
<g fill="rgb(0%, 0%, 0%)" fill-opacity="1">
<use xlink:href="#glyph-2-7" x="40.449" y="35.665"/>
</g>
<g fill="rgb(0%, 0%, 0%)" fill-opacity="1">
<use xlink:href="#glyph-2-8" x="40.449" y="25.702"/>
</g>
<g fill="rgb(0%, 0%, 0%)" fill-opacity="1">
<use xlink:href="#glyph-2-1" x="37.059" y="15.739"/>
<use xlink:href="#glyph-2-9" x="40.449273" y="15.739"/>
</g>
</svg>
