<?xml version="1.0" encoding="UTF-8"?>
<svg xmlns="http://www.w3.org/2000/svg" xmlns:xlink="http://www.w3.org/1999/xlink" width="141.74pt" height="89.356pt" viewBox="0 0 141.74 89.356">
<defs>
<g>
<g id="glyph-0-0">
<path d="M 2.203125 -3.625 C 2.203125 -3.625 2.21875 -3.640625 2.21875 -3.671875 C 2.21875 -3.6875 2.203125 -3.734375 2.125 -3.734375 C 2.03125 -3.734375 0.75 -2.9375 0.75 -1.25 C 0.75 0.4375 2.03125 1.25 2.125 1.25 C 2.203125 1.25 2.21875 1.203125 2.21875 1.171875 C 2.21875 1.140625 2.1875 1.125 2.171875 1.109375 C 1.296875 0.40625 1.125 -0.609375 1.125 -1.25 C 1.125 -2.46875 1.6875 -3.265625 2.203125 -3.625 Z M 2.203125 -3.625 "/>
</g>
<g id="glyph-0-1">
<path d="M 3.109375 -2.984375 C 3.15625 -3.03125 3.15625 -3.046875 3.171875 -3.078125 L 3.171875 -3.203125 L 1.953125 -3.203125 C 1.828125 -3.203125 1.09375 -3.234375 1.015625 -3.25 C 0.890625 -3.265625 0.890625 -3.3125 0.875 -3.375 L 0.671875 -3.375 L 0.484375 -2.25 L 0.6875 -2.25 C 0.703125 -2.328125 0.75 -2.640625 0.84375 -2.703125 C 0.875 -2.71875 1.34375 -2.734375 1.421875 -2.734375 L 2.609375 -2.734375 C 2.390625 -2.484375 2.125 -2.21875 1.921875 -1.96875 C 1.328125 -1.21875 1.265625 -0.5 1.265625 -0.1875 C 1.265625 0.078125 1.4375 0.109375 1.53125 0.109375 C 1.796875 0.109375 1.796875 -0.140625 1.796875 -0.203125 L 1.796875 -0.296875 C 1.796875 -1.1875 1.984375 -1.734375 2.28125 -2.0625 Z M 3.109375 -2.984375 "/>
</g>
<g id="glyph-0-2">
<path d="M 3 -1.59375 C 3 -1.953125 3 -3.3125 1.6875 -3.3125 C 0.390625 -3.3125 0.390625 -1.953125 0.390625 -1.59375 C 0.390625 -1.234375 0.390625 0.109375 1.6875 0.109375 C 3 0.109375 3 -1.234375 3 -1.59375 Z M 1.6875 -0.0625 C 1.515625 -0.0625 1.09375 -0.125 0.96875 -0.625 C 0.890625 -0.890625 0.890625 -1.25 0.890625 -1.65625 C 0.890625 -2.03125 0.890625 -2.375 0.96875 -2.65625 C 1.09375 -3.078125 1.484375 -3.15625 1.6875 -3.15625 C 2.0625 -3.15625 2.328125 -2.96875 2.421875 -2.609375 C 2.5 -2.359375 2.5 -1.953125 2.5 -1.65625 C 2.5 -1.3125 2.5 -0.90625 2.421875 -0.609375 C 2.296875 -0.125 1.890625 -0.0625 1.6875 -0.0625 Z M 1.6875 -0.0625 "/>
</g>
<g id="glyph-0-3">
<path d="M 1.953125 -1.25 C 1.953125 -2.9375 0.671875 -3.734375 0.5625 -3.734375 C 0.484375 -3.734375 0.484375 -3.671875 0.484375 -3.671875 C 0.484375 -3.65625 0.484375 -3.640625 0.515625 -3.609375 C 1.265625 -3.015625 1.5625 -2.140625 1.5625 -1.25 C 1.5625 -0.796875 1.484375 -0.328125 1.3125 0.078125 C 1.078125 0.640625 0.75 0.921875 0.515625 1.125 C 0.5 1.125 0.484375 1.15625 0.484375 1.171875 C 0.484375 1.1875 0.484375 1.25 0.5625 1.25 C 0.671875 1.25 1.953125 0.453125 1.953125 -1.25 Z M 1.953125 -1.25 "/>
</g>
<g id="glyph-0-4">
<path d="M 3.078125 -0.8125 L 3.078125 -1.03125 L 2.453125 -1.03125 L 2.453125 -3.21875 C 2.453125 -3.34375 2.453125 -3.375 2.3125 -3.375 C 2.21875 -3.375 2.21875 -3.375 2.15625 -3.296875 L 0.3125 -1.03125 L 0.3125 -0.8125 L 1.96875 -0.8125 L 1.96875 -0.421875 C 1.96875 -0.265625 1.96875 -0.21875 1.546875 -0.21875 L 1.359375 -0.21875 L 1.359375 0 C 1.59375 -0.015625 1.921875 -0.015625 2.21875 -0.015625 C 2.5 -0.015625 2.828125 -0.015625 3.0625 0 L 3.0625 -0.21875 L 2.890625 -0.21875 C 2.453125 -0.21875 2.453125 -0.265625 2.453125 -0.421875 L 2.453125 -0.8125 Z M 2.015625 -2.84375 L 2.015625 -1.03125 L 0.546875 -1.03125 Z M 2.015625 -2.84375 "/>
</g>
<g id="glyph-0-5">
<path d="M 1.640625 -1.65625 C 2.109375 -1.65625 2.40625 -1.359375 2.40625 -0.875 C 2.40625 -0.359375 2.09375 -0.09375 1.65625 -0.09375 C 1.59375 -0.09375 1 -0.09375 0.75 -0.359375 C 0.953125 -0.390625 1.015625 -0.53125 1.015625 -0.65625 C 1.015625 -0.84375 0.875 -0.96875 0.703125 -0.96875 C 0.546875 -0.96875 0.40625 -0.859375 0.40625 -0.640625 C 0.40625 -0.125 0.984375 0.109375 1.671875 0.109375 C 2.484375 0.109375 2.984375 -0.390625 2.984375 -0.875 C 2.984375 -1.28125 2.625 -1.625 2.0625 -1.75 C 2.65625 -1.953125 2.8125 -2.328125 2.8125 -2.609375 C 2.8125 -3.015625 2.3125 -3.3125 1.6875 -3.3125 C 1.0625 -3.3125 0.578125 -3.0625 0.578125 -2.609375 C 0.578125 -2.375 0.765625 -2.3125 0.859375 -2.3125 C 1 -2.3125 1.140625 -2.421875 1.140625 -2.609375 C 1.140625 -2.71875 1.078125 -2.859375 0.90625 -2.890625 C 1.109375 -3.109375 1.5625 -3.125 1.671875 -3.125 C 2.03125 -3.125 2.28125 -2.953125 2.28125 -2.609375 C 2.28125 -2.3125 2.09375 -1.859375 1.578125 -1.828125 C 1.4375 -1.828125 1.421875 -1.828125 1.28125 -1.8125 C 1.234375 -1.8125 1.171875 -1.8125 1.171875 -1.734375 C 1.171875 -1.65625 1.21875 -1.65625 1.3125 -1.65625 Z M 1.640625 -1.65625 "/>
</g>
<g id="glyph-0-6">
<path d="M 1.984375 -3.171875 C 1.984375 -3.3125 1.96875 -3.3125 1.796875 -3.3125 C 1.453125 -3 0.890625 -3 0.796875 -3 L 0.71875 -3 L 0.71875 -2.78125 L 0.796875 -2.78125 C 0.90625 -2.78125 1.234375 -2.796875 1.53125 -2.921875 L 1.53125 -0.421875 C 1.53125 -0.28125 1.53125 -0.21875 1 -0.21875 L 0.75 -0.21875 L 0.75 0 C 1.015625 -0.015625 1.46875 -0.015625 1.75 -0.015625 C 2.046875 -0.015625 2.484375 -0.015625 2.765625 0 L 2.765625 -0.21875 L 2.515625 -0.21875 C 1.984375 -0.21875 1.984375 -0.28125 1.984375 -0.421875 Z M 1.984375 -3.171875 "/>
</g>
<g id="glyph-0-7">
<path d="M 0.921875 -1.640625 C 0.9375 -1.859375 0.9375 -2.265625 1.109375 -2.578125 C 1.265625 -2.84375 1.578125 -3.125 2.046875 -3.125 C 2.140625 -3.125 2.375 -3.125 2.515625 -3 C 2.4375 -2.984375 2.3125 -2.90625 2.3125 -2.734375 C 2.3125 -2.578125 2.421875 -2.46875 2.578125 -2.46875 C 2.65625 -2.46875 2.84375 -2.515625 2.84375 -2.75 C 2.84375 -3.015625 2.640625 -3.3125 2.046875 -3.3125 C 1.1875 -3.3125 0.40625 -2.609375 0.40625 -1.578125 C 0.40625 -0.390625 0.984375 0.109375 1.703125 0.109375 C 2.203125 0.109375 2.4375 -0.078125 2.609375 -0.21875 C 2.921875 -0.484375 2.984375 -0.765625 2.984375 -1.015625 C 2.984375 -1.328125 2.890625 -1.5625 2.625 -1.796875 C 2.40625 -2 2.1875 -2.140625 1.75 -2.140625 C 1.453125 -2.140625 1.140625 -2 0.921875 -1.640625 Z M 1.703125 -0.09375 C 0.9375 -0.09375 0.9375 -0.921875 0.9375 -1.125 C 0.9375 -1.515625 1.21875 -1.96875 1.734375 -1.96875 C 2 -1.96875 2.15625 -1.90625 2.3125 -1.703125 C 2.453125 -1.515625 2.46875 -1.3125 2.46875 -1.03125 C 2.46875 -0.734375 2.46875 -0.546875 2.296875 -0.34375 C 2.15625 -0.1875 1.984375 -0.09375 1.703125 -0.09375 Z M 1.703125 -0.09375 "/>
</g>
<g id="glyph-0-8">
<path d="M 0.984375 -2.75 C 1.234375 -2.6875 1.46875 -2.6875 1.515625 -2.6875 C 1.859375 -2.6875 2.109375 -2.78125 2.234375 -2.84375 C 2.359375 -2.90625 2.703125 -3.125 2.703125 -3.234375 C 2.703125 -3.3125 2.640625 -3.3125 2.625 -3.3125 C 2.609375 -3.3125 2.609375 -3.3125 2.546875 -3.296875 C 2.359375 -3.234375 2.046875 -3.15625 1.71875 -3.15625 C 1.4375 -3.15625 1.171875 -3.203125 0.90625 -3.296875 C 0.84375 -3.3125 0.84375 -3.3125 0.828125 -3.3125 C 0.75 -3.3125 0.75 -3.265625 0.75 -3.1875 L 0.75 -1.6875 C 0.75 -1.59375 0.75 -1.53125 0.859375 -1.53125 C 0.90625 -1.53125 0.90625 -1.546875 0.953125 -1.59375 C 1.140625 -1.8125 1.40625 -1.921875 1.75 -1.921875 C 2.03125 -1.921875 2.203125 -1.765625 2.265625 -1.65625 C 2.375 -1.484375 2.40625 -1.265625 2.40625 -1.015625 C 2.40625 -0.8125 2.390625 -0.53125 2.1875 -0.34375 C 1.96875 -0.109375 1.6875 -0.09375 1.578125 -0.09375 C 1.25 -0.09375 0.890625 -0.234375 0.734375 -0.53125 C 0.9375 -0.546875 1.015625 -0.6875 1.015625 -0.8125 C 1.015625 -0.96875 0.890625 -1.09375 0.734375 -1.09375 C 0.625 -1.09375 0.453125 -1.015625 0.453125 -0.796875 C 0.453125 -0.296875 0.9375 0.109375 1.578125 0.109375 C 2.328125 0.109375 2.9375 -0.390625 2.9375 -1 C 2.9375 -1.5625 2.453125 -2.09375 1.765625 -2.09375 C 1.453125 -2.09375 1.1875 -2.015625 0.984375 -1.84375 Z M 0.984375 -2.75 "/>
</g>
<g id="glyph-0-9">
<path d="M 2.9375 -0.96875 L 2.71875 -0.96875 C 2.71875 -0.875 2.65625 -0.5625 2.578125 -0.515625 C 2.546875 -0.484375 2.125 -0.484375 2.046875 -0.484375 L 1.078125 -0.484375 C 1.40625 -0.71875 1.765625 -1 2.0625 -1.203125 C 2.515625 -1.515625 2.9375 -1.796875 2.9375 -2.328125 C 2.9375 -2.96875 2.328125 -3.3125 1.625 -3.3125 C 0.953125 -3.3125 0.453125 -2.9375 0.453125 -2.4375 C 0.453125 -2.1875 0.671875 -2.140625 0.75 -2.140625 C 0.875 -2.140625 1.03125 -2.234375 1.03125 -2.4375 C 1.03125 -2.609375 0.90625 -2.71875 0.75 -2.71875 C 0.890625 -2.953125 1.1875 -3.09375 1.515625 -3.09375 C 2 -3.09375 2.40625 -2.8125 2.40625 -2.328125 C 2.40625 -1.90625 2.109375 -1.578125 1.734375 -1.265625 L 0.515625 -0.234375 C 0.46875 -0.1875 0.453125 -0.1875 0.453125 -0.15625 L 0.453125 0 L 2.765625 0 Z M 2.9375 -0.96875 "/>
</g>
<g id="glyph-1-0">
<path d="M 4.390625 -1.109375 C 4.46875 -1.109375 4.59375 -1.109375 4.59375 -1.25 C 4.59375 -1.390625 4.46875 -1.390625 4.390625 -1.390625 L 1.015625 -1.390625 C 0.9375 -1.390625 0.796875 -1.390625 0.796875 -1.25 C 0.796875 -1.109375 0.9375 -1.109375 1.015625 -1.109375 Z M 4.390625 -1.109375 "/>
</g>
<g id="glyph-2-0">
<path d="M 1.34375 -0.0625 C 1.34375 0.40625 1.09375 0.6875 0.953125 0.796875 C 0.90625 0.828125 0.890625 0.84375 0.890625 0.875 C 0.890625 0.90625 0.9375 0.96875 0.984375 0.96875 C 1.046875 0.96875 1.515625 0.578125 1.515625 -0.046875 C 1.515625 -0.390625 1.359375 -0.609375 1.140625 -0.609375 C 0.953125 -0.609375 0.84375 -0.453125 0.84375 -0.296875 C 0.84375 -0.140625 0.953125 0 1.140625 0 C 1.21875 0 1.296875 -0.015625 1.34375 -0.0625 Z M 1.34375 -0.0625 "/>
</g>
<g id="glyph-3-0">
<path d="M 1.734375 -0.734375 C 1.671875 -0.5 1.4375 -0.125 1.078125 -0.125 C 1.0625 -0.125 0.84375 -0.125 0.703125 -0.21875 C 0.984375 -0.3125 1.015625 -0.5625 1.015625 -0.609375 C 1.015625 -0.765625 0.890625 -0.859375 0.734375 -0.859375 C 0.53125 -0.859375 0.328125 -0.703125 0.328125 -0.4375 C 0.328125 -0.09375 0.71875 0.0625 1.0625 0.0625 C 1.390625 0.0625 1.671875 -0.125 1.84375 -0.421875 C 2.015625 -0.0625 2.390625 0.0625 2.671875 0.0625 C 3.484375 0.0625 3.90625 -0.796875 3.90625 -1 C 3.90625 -1.09375 3.8125 -1.09375 3.796875 -1.09375 C 3.6875 -1.09375 3.6875 -1.046875 3.65625 -0.96875 C 3.515625 -0.484375 3.09375 -0.125 2.703125 -0.125 C 2.421875 -0.125 2.28125 -0.3125 2.28125 -0.578125 C 2.28125 -0.765625 2.453125 -1.390625 2.640625 -2.171875 C 2.78125 -2.703125 3.09375 -2.875 3.328125 -2.875 C 3.34375 -2.875 3.546875 -2.875 3.703125 -2.78125 C 3.484375 -2.71875 3.390625 -2.515625 3.390625 -2.390625 C 3.390625 -2.25 3.515625 -2.140625 3.671875 -2.140625 C 3.828125 -2.140625 4.0625 -2.265625 4.0625 -2.5625 C 4.0625 -2.953125 3.609375 -3.078125 3.34375 -3.078125 C 2.984375 -3.078125 2.703125 -2.84375 2.5625 -2.578125 C 2.4375 -2.859375 2.109375 -3.078125 1.71875 -3.078125 C 0.9375 -3.078125 0.5 -2.21875 0.5 -2 C 0.5 -1.921875 0.59375 -1.921875 0.609375 -1.921875 C 0.703125 -1.921875 0.703125 -1.9375 0.75 -2.03125 C 0.921875 -2.578125 1.359375 -2.875 1.703125 -2.875 C 1.9375 -2.875 2.125 -2.75 2.125 -2.421875 C 2.125 -2.28125 2.03125 -1.9375 1.96875 -1.6875 Z M 1.734375 -0.734375 "/>
</g>
<g id="glyph-3-1">
<path d="M 3.875 -2.625 C 3.90625 -2.71875 3.90625 -2.734375 3.90625 -2.78125 C 3.90625 -2.921875 3.796875 -3 3.671875 -3 C 3.59375 -3 3.46875 -2.96875 3.390625 -2.84375 C 3.359375 -2.796875 3.3125 -2.578125 3.28125 -2.4375 L 3.125 -1.859375 C 3.09375 -1.6875 2.875 -0.8125 2.84375 -0.734375 C 2.84375 -0.734375 2.53125 -0.125 2 -0.125 C 1.515625 -0.125 1.515625 -0.578125 1.515625 -0.703125 C 1.515625 -1.078125 1.671875 -1.515625 1.890625 -2.0625 C 1.96875 -2.28125 2 -2.359375 2 -2.484375 C 2 -2.8125 1.71875 -3.078125 1.34375 -3.078125 C 0.640625 -3.078125 0.328125 -2.125 0.328125 -2 C 0.328125 -1.921875 0.421875 -1.921875 0.453125 -1.921875 C 0.546875 -1.921875 0.546875 -1.953125 0.578125 -2.03125 C 0.75 -2.609375 1.046875 -2.875 1.328125 -2.875 C 1.4375 -2.875 1.5 -2.796875 1.5 -2.640625 C 1.5 -2.46875 1.4375 -2.328125 1.40625 -2.234375 C 1.0625 -1.375 1 -1.125 1 -0.8125 C 1 -0.703125 1 -0.375 1.265625 -0.140625 C 1.484375 0.03125 1.78125 0.0625 1.96875 0.0625 C 2.25 0.0625 2.5 -0.03125 2.71875 -0.25 C 2.640625 0.140625 2.5625 0.4375 2.265625 0.78125 C 2.078125 1 1.796875 1.21875 1.421875 1.21875 C 1.375 1.21875 1.046875 1.21875 0.90625 1 C 1.28125 0.953125 1.28125 0.625 1.28125 0.609375 C 1.28125 0.390625 1.078125 0.34375 1.015625 0.34375 C 0.84375 0.34375 0.609375 0.484375 0.609375 0.8125 C 0.609375 1.15625 0.9375 1.421875 1.4375 1.421875 C 2.140625 1.421875 3 0.875 3.21875 0 Z M 3.875 -2.625 "/>
</g>
</g>
</defs>
<path fill-rule="nonzero" fill="rgb(0%, 0%, 0%)" fill-opacity="1" d="M 17.1875 63.203125 C 16.789062 63.203125 16.410156 63.359375 16.128906 63.640625 C 15.847656 63.921875 15.691406 64.300781 15.691406 64.699219 C 15.691406 65.09375 15.847656 65.472656 16.128906 65.753906 C 16.410156 66.035156 16.789062 66.191406 17.1875 66.191406 C 17.582031 66.191406 17.960938 66.035156 18.242188 65.753906 C 18.523438 65.472656 18.679688 65.09375 18.679688 64.699219 C 18.679688 64.300781 18.523438 63.921875 18.242188 63.640625 C 17.960938 63.359375 17.582031 63.203125 17.1875 63.203125 Z M 17.1875 63.203125 "/>
<path fill-rule="nonzero" fill="rgb(0%, 0%, 0%)" fill-opacity="1" d="M 106.847656 63.203125 C 106.453125 63.203125 106.074219 63.359375 105.792969 63.640625 C 105.511719 63.921875 105.355469 64.300781 105.355469 64.699219 C 105.355469 65.09375 105.511719 65.472656 105.792969 65.753906 C 106.074219 66.035156 106.453125 66.191406 106.847656 66.191406 C 107.246094 66.191406 107.625 66.035156 107.90625 65.753906 C 108.1875 65.472656 108.34375 65.09375 108.34375 64.699219 C 108.34375 64.300781 108.1875 63.921875 107.90625 63.640625 C 107.625 63.359375 107.246094 63.203125 106.847656 63.203125 Z M 106.847656 63.203125 "/>
<path fill-rule="nonzero" fill="rgb(0%, 0%, 0%)" fill-opacity="1" d="M 62.019531 18.371094 C 61.621094 18.371094 61.242188 18.53125 60.960938 18.808594 C 60.679688 19.089844 60.523438 19.46875 60.523438 19.867188 C 60.523438 20.261719 60.679688 20.644531 60.960938 20.921875 C 61.242188 21.203125 61.621094 21.359375 62.019531 21.359375 C 62.414062 21.359375 62.792969 21.203125 63.074219 20.921875 C 63.355469 20.644531 63.511719 20.261719 63.511719 19.867188 C 63.511719 19.46875 63.355469 19.089844 63.074219 18.808594 C 62.792969 18.53125 62.414062 18.371094 62.019531 18.371094 Z M 62.019531 18.371094 "/>
<path fill="none" stroke-width="0.49814" stroke-linecap="round" stroke-linejoin="round" stroke="rgb(0%, 0%, 0%)" stroke-opacity="1" stroke-miterlimit="10" d="M 104.605586 22.414711 C 104.609493 23.930336 104.531368 25.445961 104.379024 26.949867 C 104.222774 28.45768 103.996211 29.95768 103.687618 31.442055 C 103.38293 32.922524 103.004024 34.391274 102.550899 35.836586 C 102.097774 37.281899 101.57043 38.703774 100.972774 40.094399 C 100.375118 41.485024 99.711055 42.848305 98.972774 44.172524 C 98.238399 45.496742 97.437618 46.781899 96.57043 48.027992 C 95.707149 49.27018 94.777461 50.469399 93.793086 51.617836 C 92.804805 52.766274 91.761836 53.867836 90.66418 54.910805 C 89.566524 55.953774 88.41418 56.942055 87.214961 57.867836 C 86.019649 58.793617 84.773555 59.660805 83.488399 60.461586 C 82.203243 61.262367 80.879024 62.000649 79.519649 62.664711 C 78.160274 63.33268 76.765743 63.930336 75.343868 64.45768 C 73.925899 64.985024 72.480586 65.438149 71.011836 65.817055 C 69.546993 66.195961 68.062618 66.500649 66.562618 66.731117 C 65.066524 66.961586 63.558711 67.11393 62.046993 67.192055 C 60.535274 67.266274 59.019649 67.266274 57.504024 67.192055 C 55.992305 67.11393 54.484493 66.961586 52.988399 66.731117 C 51.488399 66.500649 50.004024 66.195961 48.53918 65.817055 C 47.074336 65.438149 45.625118 64.985024 44.207149 64.45768 C 42.785274 63.930336 41.394649 63.33268 40.031368 62.664711 C 38.671993 62.000649 37.347774 61.262367 36.062618 60.461586 C 34.777461 59.660805 33.531368 58.793617 32.336055 57.867836 C 31.136836 56.942055 29.988399 55.953774 28.890743 54.910805 C 27.78918 53.867836 26.746211 52.766274 25.75793 51.617836 C 24.773555 50.469399 23.843868 49.27018 22.980586 48.027992 C 22.113399 46.781899 21.312618 45.496742 20.578243 44.172524 C 19.843868 42.848305 19.175899 41.48893 18.578243 40.094399 C 17.980586 38.703774 17.453243 37.281899 17.000118 35.836586 C 16.546993 34.391274 16.168086 32.92643 15.863399 31.442055 C 15.558711 29.95768 15.328242 28.45768 15.171992 26.949867 C 15.019649 25.445961 14.94543 23.930336 14.94543 22.414711 " transform="matrix(1, 0, 0, -1, 2.24207, 87.11393)"/>
<path fill="none" stroke-width="0.49814" stroke-linecap="round" stroke-linejoin="round" stroke="rgb(0%, 0%, 0%)" stroke-opacity="1" stroke-miterlimit="10" d="M 0.0001175 22.414711 L 134.496211 22.414711 " transform="matrix(1, 0, 0, -1, 2.24207, 87.11393)"/>
<path fill="none" stroke-width="0.49814" stroke-linecap="round" stroke-linejoin="round" stroke="rgb(0%, 0%, 0%)" stroke-opacity="1" stroke-miterlimit="10" d="M 129.515742 24.906899 C 130.691524 23.340492 132.535274 22.414711 134.496211 22.414711 C 132.535274 22.414711 130.691524 21.492836 129.515742 19.92643 " transform="matrix(1, 0, 0, -1, 2.24207, 87.11393)"/>
<path fill="none" stroke-width="0.49814" stroke-linecap="round" stroke-linejoin="round" stroke="rgb(0%, 0%, 0%)" stroke-opacity="1" stroke-miterlimit="10" d="M 119.550899 0.00064875 L 119.550899 82.192055 " transform="matrix(1, 0, 0, -1, 2.24207, 87.11393)"/>
<path fill="none" stroke-width="0.49814" stroke-linecap="round" stroke-linejoin="round" stroke="rgb(0%, 0%, 0%)" stroke-opacity="1" stroke-miterlimit="10" d="M 117.062618 77.211586 C 118.629024 78.387367 119.550899 80.231117 119.550899 82.192055 C 119.550899 80.231117 120.472774 78.387367 122.043086 77.211586 " transform="matrix(1, 0, 0, -1, 2.24207, 87.11393)"/>
<path fill="none" stroke-width="0.49814" stroke-linecap="round" stroke-linejoin="round" stroke="rgb(0%, 0%, 0%)" stroke-opacity="1" stroke-miterlimit="10" d="M 14.94543 20.422524 L 14.94543 24.406899 " transform="matrix(1, 0, 0, -1, 2.24207, 87.11393)"/>
<path fill="none" stroke-width="0.49814" stroke-linecap="round" stroke-linejoin="round" stroke="rgb(0%, 0%, 0%)" stroke-opacity="1" stroke-miterlimit="10" d="M 29.886836 20.422524 L 29.886836 24.406899 " transform="matrix(1, 0, 0, -1, 2.24207, 87.11393)"/>
<path fill="none" stroke-width="0.49814" stroke-linecap="round" stroke-linejoin="round" stroke="rgb(0%, 0%, 0%)" stroke-opacity="1" stroke-miterlimit="10" d="M 44.832149 20.422524 L 44.832149 24.406899 " transform="matrix(1, 0, 0, -1, 2.24207, 87.11393)"/>
<path fill="none" stroke-width="0.49814" stroke-linecap="round" stroke-linejoin="round" stroke="rgb(0%, 0%, 0%)" stroke-opacity="1" stroke-miterlimit="10" d="M 59.777461 20.422524 L 59.777461 24.406899 " transform="matrix(1, 0, 0, -1, 2.24207, 87.11393)"/>
<path fill="none" stroke-width="0.49814" stroke-linecap="round" stroke-linejoin="round" stroke="rgb(0%, 0%, 0%)" stroke-opacity="1" stroke-miterlimit="10" d="M 74.718868 20.422524 L 74.718868 24.406899 " transform="matrix(1, 0, 0, -1, 2.24207, 87.11393)"/>
<path fill="none" stroke-width="0.49814" stroke-linecap="round" stroke-linejoin="round" stroke="rgb(0%, 0%, 0%)" stroke-opacity="1" stroke-miterlimit="10" d="M 89.66418 20.422524 L 89.66418 24.406899 " transform="matrix(1, 0, 0, -1, 2.24207, 87.11393)"/>
<path fill="none" stroke-width="0.49814" stroke-linecap="round" stroke-linejoin="round" stroke="rgb(0%, 0%, 0%)" stroke-opacity="1" stroke-miterlimit="10" d="M 104.605586 20.422524 L 104.605586 24.406899 " transform="matrix(1, 0, 0, -1, 2.24207, 87.11393)"/>
<path fill="none" stroke-width="0.49814" stroke-linecap="round" stroke-linejoin="round" stroke="rgb(0%, 0%, 0%)" stroke-opacity="1" stroke-miterlimit="10" d="M 121.543086 7.473305 L 117.558711 7.473305 " transform="matrix(1, 0, 0, -1, 2.24207, 87.11393)"/>
<path fill="none" stroke-width="0.49814" stroke-linecap="round" stroke-linejoin="round" stroke="rgb(0%, 0%, 0%)" stroke-opacity="1" stroke-miterlimit="10" d="M 121.543086 37.360024 L 117.558711 37.360024 " transform="matrix(1, 0, 0, -1, 2.24207, 87.11393)"/>
<path fill="none" stroke-width="0.49814" stroke-linecap="round" stroke-linejoin="round" stroke="rgb(0%, 0%, 0%)" stroke-opacity="1" stroke-miterlimit="10" d="M 121.543086 52.305336 L 117.558711 52.305336 " transform="matrix(1, 0, 0, -1, 2.24207, 87.11393)"/>
<path fill="none" stroke-width="0.49814" stroke-linecap="round" stroke-linejoin="round" stroke="rgb(0%, 0%, 0%)" stroke-opacity="1" stroke-miterlimit="10" d="M 121.543086 67.246742 L 117.558711 67.246742 " transform="matrix(1, 0, 0, -1, 2.24207, 87.11393)"/>
<g fill="rgb(0%, 0%, 0%)" fill-opacity="1">
<use xlink:href="#glyph-0-0" x="7.397" y="80.137"/>
</g>
<g fill="rgb(0%, 0%, 0%)" fill-opacity="1">
<use xlink:href="#glyph-1-0" x="10.09537" y="80.137"/>
</g>
<g fill="rgb(0%, 0%, 0%)" fill-opacity="1">
<use xlink:href="#glyph-0-1" x="15.491613" y="80.137"/>
</g>
<g fill="rgb(0%, 0%, 0%)" fill-opacity="1">
<use xlink:href="#glyph-2-0" x="18.881885" y="80.137"/>
</g>
<g fill="rgb(0%, 0%, 0%)" fill-opacity="1">
<use xlink:href="#glyph-0-2" x="22.385234" y="80.137"/>
<use xlink:href="#glyph-0-3" x="25.775506" y="80.137"/>
</g>
<g fill="rgb(0%, 0%, 0%)" fill-opacity="1">
<use xlink:href="#glyph-0-0" x="67.173" y="12.889"/>
</g>
<g fill="rgb(0%, 0%, 0%)" fill-opacity="1">
<use xlink:href="#glyph-1-0" x="69.87137" y="12.889"/>
</g>
<g fill="rgb(0%, 0%, 0%)" fill-opacity="1">
<use xlink:href="#glyph-0-4" x="75.267613" y="12.889"/>
</g>
<g fill="rgb(0%, 0%, 0%)" fill-opacity="1">
<use xlink:href="#glyph-2-0" x="78.657885" y="12.889"/>
</g>
<g fill="rgb(0%, 0%, 0%)" fill-opacity="1">
<use xlink:href="#glyph-0-5" x="82.161234" y="12.889"/>
<use xlink:href="#glyph-0-3" x="85.551506" y="12.889"/>
</g>
<g fill="rgb(0%, 0%, 0%)" fill-opacity="1">
<use xlink:href="#glyph-0-0" x="97.061" y="80.137"/>
</g>
<g fill="rgb(0%, 0%, 0%)" fill-opacity="1">
<use xlink:href="#glyph-1-0" x="99.75937" y="80.137"/>
</g>
<g fill="rgb(0%, 0%, 0%)" fill-opacity="1">
<use xlink:href="#glyph-0-6" x="105.155613" y="80.137"/>
</g>
<g fill="rgb(0%, 0%, 0%)" fill-opacity="1">
<use xlink:href="#glyph-2-0" x="108.545885" y="80.137"/>
</g>
<g fill="rgb(0%, 0%, 0%)" fill-opacity="1">
<use xlink:href="#glyph-0-2" x="112.049234" y="80.137"/>
<use xlink:href="#glyph-0-3" x="115.439506" y="80.137"/>
</g>
<g fill="rgb(0%, 0%, 0%)" fill-opacity="1">
<use xlink:href="#glyph-3-0" x="135.229" y="72.921"/>
</g>
<g fill="rgb(0%, 0%, 0%)" fill-opacity="1">
<use xlink:href="#glyph-3-1" x="127.871" y="4.995"/>
</g>
<g fill="rgb(0%, 0%, 0%)" fill-opacity="1">
<use xlink:href="#glyph-1-0" x="10.056" y="71.254"/>
</g>
<g fill="rgb(0%, 0%, 0%)" fill-opacity="1">
<use xlink:href="#glyph-0-1" x="15.452242" y="71.254"/>
</g>
<g fill="rgb(0%, 0%, 0%)" fill-opacity="1">
<use xlink:href="#glyph-1-0" x="24.999402" y="71.254"/>
</g>
<g fill="rgb(0%, 0%, 0%)" fill-opacity="1">
<use xlink:href="#glyph-0-7" x="30.395644" y="71.254"/>
</g>
<g fill="rgb(0%, 0%, 0%)" fill-opacity="1">
<use xlink:href="#glyph-1-0" x="39.942804" y="71.254"/>
</g>
<g fill="rgb(0%, 0%, 0%)" fill-opacity="1">
<use xlink:href="#glyph-0-8" x="45.339046" y="71.254"/>
</g>
<g fill="rgb(0%, 0%, 0%)" fill-opacity="1">
<use xlink:href="#glyph-1-0" x="54.886206" y="71.254"/>
</g>
<g fill="rgb(0%, 0%, 0%)" fill-opacity="1">
<use xlink:href="#glyph-0-4" x="60.282448" y="71.254"/>
</g>
<g fill="rgb(0%, 0%, 0%)" fill-opacity="1">
<use xlink:href="#glyph-1-0" x="69.829607" y="71.254"/>
</g>
<g fill="rgb(0%, 0%, 0%)" fill-opacity="1">
<use xlink:href="#glyph-0-5" x="75.230831" y="71.254"/>
</g>
<g fill="rgb(0%, 0%, 0%)" fill-opacity="1">
<use xlink:href="#glyph-1-0" x="84.777991" y="71.254"/>
</g>
<g fill="rgb(0%, 0%, 0%)" fill-opacity="1">
<use xlink:href="#glyph-0-9" x="90.174233" y="71.254"/>
</g>
<g fill="rgb(0%, 0%, 0%)" fill-opacity="1">
<use xlink:href="#glyph-1-0" x="99.721393" y="71.254"/>
</g>
<g fill="rgb(0%, 0%, 0%)" fill-opacity="1">
<use xlink:href="#glyph-0-6" x="105.117635" y="71.254"/>
</g>
<g fill="rgb(0%, 0%, 0%)" fill-opacity="1">
<use xlink:href="#glyph-0-6" x="115.169" y="50.609"/>
</g>
<g fill="rgb(0%, 0%, 0%)" fill-opacity="1">
<use xlink:href="#glyph-0-9" x="115.169" y="35.665"/>
</g>
<g fill="rgb(0%, 0%, 0%)" fill-opacity="1">
<use xlink:href="#glyph-0-5" x="115.169" y="20.721"/>
</g>
</svg>
