<?xml version="1.0" encoding="UTF-8"?>
<svg xmlns="http://www.w3.org/2000/svg" xmlns:xlink="http://www.w3.org/1999/xlink" width="182.178pt" height="188.426pt" viewBox="0 0 182.178 188.426">
<defs>
<g>
<g id="glyph-0-0">
<path d="M 3.328125 -3.015625 C 3.390625 -3.265625 3.625 -4.1875 4.3125 -4.1875 C 4.359375 -4.1875 4.609375 -4.1875 4.8125 -4.0625 C 4.53125 -4 4.34375 -3.765625 4.34375 -3.515625 C 4.34375 -3.359375 4.453125 -3.171875 4.71875 -3.171875 C 4.9375 -3.171875 5.25 -3.34375 5.25 -3.75 C 5.25 -4.265625 4.671875 -4.40625 4.328125 -4.40625 C 3.75 -4.40625 3.40625 -3.875 3.28125 -3.65625 C 3.03125 -4.3125 2.5 -4.40625 2.203125 -4.40625 C 1.171875 -4.40625 0.59375 -3.125 0.59375 -2.875 C 0.59375 -2.765625 0.703125 -2.765625 0.71875 -2.765625 C 0.796875 -2.765625 0.828125 -2.796875 0.84375 -2.875 C 1.1875 -3.9375 1.84375 -4.1875 2.1875 -4.1875 C 2.375 -4.1875 2.71875 -4.09375 2.71875 -3.515625 C 2.71875 -3.203125 2.546875 -2.546875 2.1875 -1.140625 C 2.03125 -0.53125 1.671875 -0.109375 1.234375 -0.109375 C 1.171875 -0.109375 0.953125 -0.109375 0.734375 -0.234375 C 0.984375 -0.296875 1.203125 -0.5 1.203125 -0.78125 C 1.203125 -1.046875 0.984375 -1.125 0.84375 -1.125 C 0.53125 -1.125 0.296875 -0.875 0.296875 -0.546875 C 0.296875 -0.09375 0.78125 0.109375 1.21875 0.109375 C 1.890625 0.109375 2.25 -0.59375 2.265625 -0.640625 C 2.390625 -0.28125 2.75 0.109375 3.34375 0.109375 C 4.375 0.109375 4.9375 -1.171875 4.9375 -1.421875 C 4.9375 -1.53125 4.859375 -1.53125 4.828125 -1.53125 C 4.734375 -1.53125 4.71875 -1.484375 4.6875 -1.421875 C 4.359375 -0.34375 3.6875 -0.109375 3.375 -0.109375 C 2.984375 -0.109375 2.828125 -0.421875 2.828125 -0.765625 C 2.828125 -0.984375 2.875 -1.203125 2.984375 -1.640625 Z M 3.328125 -3.015625 "/>
</g>
<g id="glyph-0-1">
<path d="M 4.84375 -3.796875 C 4.890625 -3.9375 4.890625 -3.953125 4.890625 -4.03125 C 4.890625 -4.203125 4.75 -4.296875 4.59375 -4.296875 C 4.5 -4.296875 4.34375 -4.234375 4.25 -4.09375 C 4.234375 -4.03125 4.140625 -3.734375 4.109375 -3.546875 C 4.03125 -3.296875 3.96875 -3.015625 3.90625 -2.75 L 3.453125 -0.953125 C 3.421875 -0.8125 2.984375 -0.109375 2.328125 -0.109375 C 1.828125 -0.109375 1.71875 -0.546875 1.71875 -0.921875 C 1.71875 -1.375 1.890625 -2 2.21875 -2.875 C 2.375 -3.28125 2.421875 -3.390625 2.421875 -3.59375 C 2.421875 -4.03125 2.109375 -4.40625 1.609375 -4.40625 C 0.65625 -4.40625 0.296875 -2.953125 0.296875 -2.875 C 0.296875 -2.765625 0.390625 -2.765625 0.40625 -2.765625 C 0.515625 -2.765625 0.515625 -2.796875 0.5625 -2.953125 C 0.84375 -3.890625 1.234375 -4.1875 1.578125 -4.1875 C 1.65625 -4.1875 1.828125 -4.1875 1.828125 -3.875 C 1.828125 -3.625 1.71875 -3.359375 1.65625 -3.171875 C 1.25 -2.109375 1.078125 -1.546875 1.078125 -1.078125 C 1.078125 -0.1875 1.703125 0.109375 2.296875 0.109375 C 2.6875 0.109375 3.015625 -0.0625 3.296875 -0.34375 C 3.171875 0.171875 3.046875 0.671875 2.65625 1.203125 C 2.390625 1.53125 2.015625 1.828125 1.5625 1.828125 C 1.421875 1.828125 0.96875 1.796875 0.796875 1.40625 C 0.953125 1.40625 1.09375 1.40625 1.21875 1.28125 C 1.328125 1.203125 1.421875 1.0625 1.421875 0.875 C 1.421875 0.5625 1.15625 0.53125 1.0625 0.53125 C 0.828125 0.53125 0.5 0.6875 0.5 1.171875 C 0.5 1.671875 0.9375 2.046875 1.5625 2.046875 C 2.578125 2.046875 3.609375 1.140625 3.890625 0.015625 Z M 4.84375 -3.796875 "/>
</g>
<g id="glyph-1-0">
<path d="M 6.046875 -2.046875 C 6.21875 -2.046875 6.390625 -2.046875 6.390625 -2.25 C 6.390625 -2.4375 6.203125 -2.4375 6.046875 -2.4375 L 1.109375 -2.4375 C 0.953125 -2.4375 0.765625 -2.4375 0.765625 -2.25 C 0.765625 -2.046875 0.9375 -2.046875 1.109375 -2.046875 Z M 6.046875 -2.046875 "/>
</g>
<g id="glyph-2-0">
<path d="M 1.765625 -1.984375 C 2.265625 -1.984375 2.609375 -1.640625 2.609375 -1.03125 C 2.609375 -0.375 2.21875 -0.09375 1.78125 -0.09375 C 1.609375 -0.09375 1 -0.125 0.734375 -0.46875 C 0.96875 -0.5 1.0625 -0.65625 1.0625 -0.8125 C 1.0625 -1.015625 0.921875 -1.15625 0.71875 -1.15625 C 0.5625 -1.15625 0.375 -1.046875 0.375 -0.796875 C 0.375 -0.203125 1.03125 0.125 1.796875 0.125 C 2.6875 0.125 3.265625 -0.4375 3.265625 -1.03125 C 3.265625 -1.46875 2.9375 -1.9375 2.21875 -2.109375 C 2.703125 -2.265625 3.078125 -2.65625 3.078125 -3.140625 C 3.078125 -3.625 2.515625 -3.984375 1.796875 -3.984375 C 1.09375 -3.984375 0.5625 -3.65625 0.5625 -3.171875 C 0.5625 -2.90625 0.765625 -2.84375 0.890625 -2.84375 C 1.046875 -2.84375 1.203125 -2.9375 1.203125 -3.15625 C 1.203125 -3.34375 1.078125 -3.453125 0.90625 -3.46875 C 1.1875 -3.78125 1.734375 -3.78125 1.796875 -3.78125 C 2.09375 -3.78125 2.484375 -3.640625 2.484375 -3.140625 C 2.484375 -2.8125 2.296875 -2.234375 1.6875 -2.203125 C 1.578125 -2.203125 1.421875 -2.1875 1.375 -2.1875 C 1.3125 -2.171875 1.25 -2.171875 1.25 -2.078125 C 1.25 -1.984375 1.3125 -1.984375 1.40625 -1.984375 Z M 1.765625 -1.984375 "/>
</g>
<g id="glyph-2-1">
<path d="M 3.375 -0.984375 L 3.375 -1.21875 L 2.671875 -1.21875 L 2.671875 -3.859375 C 2.671875 -4 2.671875 -4.046875 2.53125 -4.046875 C 2.421875 -4.046875 2.40625 -4.015625 2.359375 -3.953125 L 0.28125 -1.21875 L 0.28125 -0.984375 L 2.140625 -0.984375 L 2.140625 -0.5 C 2.140625 -0.3125 2.140625 -0.234375 1.640625 -0.234375 L 1.453125 -0.234375 L 1.453125 0 C 1.578125 0 2.140625 -0.03125 2.40625 -0.03125 C 2.671875 -0.03125 3.234375 0 3.34375 0 L 3.34375 -0.234375 L 3.171875 -0.234375 C 2.671875 -0.234375 2.671875 -0.3125 2.671875 -0.5 L 2.671875 -0.984375 Z M 2.171875 -3.390625 L 2.171875 -1.21875 L 0.53125 -1.21875 Z M 2.171875 -3.390625 "/>
</g>
<g id="glyph-2-2">
<path d="M 1.015625 -3.328125 C 1.21875 -3.265625 1.421875 -3.25 1.625 -3.25 C 1.765625 -3.25 2.09375 -3.25 2.46875 -3.453125 C 2.578125 -3.515625 2.9375 -3.765625 2.9375 -3.890625 C 2.9375 -3.96875 2.890625 -3.984375 2.859375 -3.984375 C 2.84375 -3.984375 2.84375 -3.984375 2.765625 -3.953125 C 2.5625 -3.875 2.25 -3.78125 1.859375 -3.78125 C 1.5625 -3.78125 1.25 -3.84375 0.96875 -3.9375 C 0.921875 -3.96875 0.890625 -3.984375 0.875 -3.984375 C 0.78125 -3.984375 0.78125 -3.90625 0.78125 -3.8125 L 0.78125 -2.015625 C 0.78125 -1.921875 0.78125 -1.84375 0.890625 -1.84375 C 0.953125 -1.84375 0.96875 -1.875 1 -1.921875 C 1.15625 -2.109375 1.421875 -2.3125 1.890625 -2.3125 C 2.625 -2.3125 2.625 -1.421875 2.625 -1.234375 C 2.625 -1 2.609375 -0.65625 2.40625 -0.40625 C 2.21875 -0.1875 1.9375 -0.09375 1.6875 -0.09375 C 1.28125 -0.09375 0.859375 -0.3125 0.71875 -0.671875 C 1.015625 -0.671875 1.046875 -0.90625 1.046875 -0.96875 C 1.046875 -1.140625 0.921875 -1.28125 0.734375 -1.28125 C 0.6875 -1.28125 0.4375 -1.25 0.4375 -0.953125 C 0.4375 -0.40625 0.953125 0.125 1.703125 0.125 C 2.53125 0.125 3.21875 -0.453125 3.21875 -1.203125 C 3.21875 -1.890625 2.671875 -2.5 1.890625 -2.5 C 1.515625 -2.5 1.203125 -2.375 1.015625 -2.21875 Z M 1.015625 -3.328125 "/>
</g>
<g id="glyph-2-3">
<path d="M 2.296875 -2.15625 C 2.75 -2.359375 3.078125 -2.65625 3.078125 -3.078125 C 3.078125 -3.671875 2.453125 -3.984375 1.828125 -3.984375 C 1.15625 -3.984375 0.5625 -3.578125 0.5625 -2.96875 C 0.5625 -2.59375 0.8125 -2.3125 1.0625 -2.15625 C 1.125 -2.125 1.265625 -2.046875 1.328125 -2.015625 C 0.9375 -1.859375 0.375 -1.53125 0.375 -0.921875 C 0.375 -0.21875 1.125 0.125 1.8125 0.125 C 2.609375 0.125 3.265625 -0.359375 3.265625 -1.015625 C 3.265625 -1.4375 3.015625 -1.671875 2.9375 -1.765625 C 2.8125 -1.875 2.515625 -2.046875 2.296875 -2.15625 Z M 1.21875 -2.75 C 1.203125 -2.765625 0.90625 -2.921875 0.90625 -3.203125 C 0.90625 -3.59375 1.375 -3.78125 1.8125 -3.78125 C 2.28125 -3.78125 2.75 -3.53125 2.75 -3.078125 C 2.75 -2.609375 2.25 -2.375 2.078125 -2.28125 Z M 1.5625 -1.890625 C 1.640625 -1.84375 2.28125 -1.484375 2.4375 -1.40625 C 2.5625 -1.328125 2.890625 -1.15625 2.890625 -0.8125 C 2.890625 -0.328125 2.34375 -0.09375 1.828125 -0.09375 C 1.28125 -0.09375 0.765625 -0.40625 0.765625 -0.921875 C 0.765625 -1.4375 1.234375 -1.765625 1.5625 -1.890625 Z M 1.5625 -1.890625 "/>
</g>
<g id="glyph-2-4">
<path d="M 3.21875 -1.125 L 3 -1.125 C 2.984375 -1.03125 2.921875 -0.640625 2.84375 -0.578125 C 2.796875 -0.53125 2.3125 -0.53125 2.21875 -0.53125 L 1.109375 -0.53125 L 1.875 -1.15625 C 2.078125 -1.328125 2.609375 -1.703125 2.796875 -1.890625 C 2.96875 -2.0625 3.21875 -2.375 3.21875 -2.796875 C 3.21875 -3.546875 2.546875 -3.984375 1.734375 -3.984375 C 0.96875 -3.984375 0.4375 -3.46875 0.4375 -2.90625 C 0.4375 -2.609375 0.6875 -2.5625 0.75 -2.5625 C 0.90625 -2.5625 1.078125 -2.671875 1.078125 -2.890625 C 1.078125 -3.015625 1 -3.21875 0.734375 -3.21875 C 0.875 -3.515625 1.234375 -3.75 1.65625 -3.75 C 2.28125 -3.75 2.609375 -3.28125 2.609375 -2.796875 C 2.609375 -2.375 2.328125 -1.9375 1.921875 -1.546875 L 0.5 -0.25 C 0.4375 -0.1875 0.4375 -0.1875 0.4375 0 L 3.03125 0 Z M 3.21875 -1.125 "/>
</g>
<g id="glyph-3-0">
<path d="M 2.03125 -2.15625 L 2.765625 -2.15625 C 2.640625 -1.625 2.5625 -1.234375 2.5625 -0.84375 C 2.5625 -0.546875 2.65625 0.0625 2.9375 0.0625 C 3.09375 0.0625 3.21875 -0.078125 3.21875 -0.21875 C 3.21875 -0.265625 3.203125 -0.3125 3.1875 -0.34375 C 2.96875 -0.734375 2.921875 -1.125 2.921875 -1.4375 C 2.921875 -1.53125 2.921875 -1.796875 3 -2.15625 L 3.796875 -2.15625 C 3.859375 -2.15625 4.125 -2.15625 4.125 -2.40625 C 4.125 -2.578125 3.953125 -2.578125 3.859375 -2.578125 L 1.46875 -2.578125 C 1.359375 -2.578125 1.078125 -2.578125 0.765625 -2.28125 C 0.578125 -2.109375 0.359375 -1.8125 0.359375 -1.765625 C 0.359375 -1.671875 0.4375 -1.671875 0.46875 -1.671875 C 0.53125 -1.671875 0.546875 -1.6875 0.59375 -1.734375 C 0.6875 -1.890625 0.921875 -2.15625 1.40625 -2.15625 L 1.796875 -2.15625 C 1.59375 -1.40625 1.1875 -0.609375 1.109375 -0.453125 C 1.0625 -0.359375 0.984375 -0.203125 0.984375 -0.140625 C 0.984375 -0.015625 1.078125 0.0625 1.203125 0.0625 C 1.40625 0.0625 1.484375 -0.15625 1.546875 -0.34375 C 1.65625 -0.71875 1.65625 -0.734375 1.75 -1.046875 Z M 2.03125 -2.15625 "/>
</g>
<g id="glyph-4-0">
<path d="M 2.71875 -5.734375 C 2.71875 -5.953125 2.71875 -5.96875 2.5 -5.96875 C 1.9375 -5.40625 1.109375 -5.40625 0.828125 -5.40625 L 0.828125 -5.125 C 1 -5.125 1.546875 -5.125 2.03125 -5.359375 L 2.03125 -0.71875 C 2.03125 -0.390625 2.015625 -0.28125 1.171875 -0.28125 L 0.890625 -0.28125 L 0.890625 0 C 1.203125 -0.03125 2.015625 -0.03125 2.375 -0.03125 C 2.75 -0.03125 3.546875 -0.03125 3.875 0 L 3.875 -0.28125 L 3.59375 -0.28125 C 2.75 -0.28125 2.71875 -0.390625 2.71875 -0.71875 Z M 2.71875 -5.734375 "/>
</g>
</g>
</defs>
<path fill-rule="nonzero" fill="rgb(0%, 0%, 0%)" fill-opacity="1" d="M 53.875 50.253906 C 53.476562 50.253906 53.097656 50.410156 52.816406 50.691406 C 52.535156 50.972656 52.378906 51.351562 52.378906 51.75 C 52.378906 52.144531 52.535156 52.523438 52.816406 52.804688 C 53.097656 53.085938 53.476562 53.242188 53.875 53.242188 C 54.269531 53.242188 54.648438 53.085938 54.929688 52.804688 C 55.210938 52.523438 55.367188 52.144531 55.367188 51.75 C 55.367188 51.351562 55.210938 50.972656 54.929688 50.691406 C 54.648438 50.410156 54.269531 50.253906 53.875 50.253906 Z M 53.875 50.253906 "/>
<path fill-rule="nonzero" fill="rgb(0%, 0%, 0%)" fill-opacity="1" d="M 73.433594 63.535156 C 73.039062 63.535156 72.660156 63.695312 72.378906 63.972656 C 72.097656 64.253906 71.941406 64.632812 71.941406 65.03125 C 71.941406 65.425781 72.097656 65.808594 72.378906 66.085938 C 72.660156 66.367188 73.039062 66.523438 73.433594 66.523438 C 73.832031 66.523438 74.210938 66.367188 74.492188 66.085938 C 74.773438 65.808594 74.929688 65.425781 74.929688 65.03125 C 74.929688 64.632812 74.773438 64.253906 74.492188 63.972656 C 74.210938 63.695312 73.832031 63.535156 73.433594 63.535156 Z M 73.433594 63.535156 "/>
<path fill-rule="nonzero" fill="rgb(0%, 0%, 0%)" fill-opacity="1" d="M 92.996094 76.820312 C 92.601562 76.820312 92.21875 76.976562 91.941406 77.257812 C 91.660156 77.535156 91.503906 77.917969 91.503906 78.3125 C 91.503906 78.710938 91.660156 79.089844 91.941406 79.371094 C 92.21875 79.648438 92.601562 79.808594 92.996094 79.808594 C 93.394531 79.808594 93.773438 79.648438 94.054688 79.371094 C 94.332031 79.089844 94.492188 78.710938 94.492188 78.3125 C 94.492188 77.917969 94.332031 77.535156 94.054688 77.257812 C 93.773438 76.976562 93.394531 76.820312 92.996094 76.820312 Z M 92.996094 76.820312 "/>
<path fill="none" stroke-width="0.49814" stroke-linecap="round" stroke-linejoin="round" stroke="rgb(0%, 0%, 0%)" stroke-opacity="1" stroke-miterlimit="10" d="M 0.0001175 79.699467 L 174.343867 79.699467 " transform="matrix(1, 0, 0, -1, 2.24207, 184.58228)"/>
<path fill="none" stroke-width="0.49814" stroke-linecap="round" stroke-linejoin="round" stroke="rgb(0%, 0%, 0%)" stroke-opacity="1" stroke-miterlimit="10" d="M 169.363399 82.191655 C 170.53918 80.625249 172.386836 79.699467 174.343867 79.699467 C 172.386836 79.699467 170.53918 78.777592 169.363399 77.211186 " transform="matrix(1, 0, 0, -1, 2.24207, 184.58228)"/>
<path fill="none" stroke-width="0.49814" stroke-linecap="round" stroke-linejoin="round" stroke="rgb(0%, 0%, 0%)" stroke-opacity="1" stroke-miterlimit="10" d="M 149.437617 0.00024875 L 149.437617 179.328374 " transform="matrix(1, 0, 0, -1, 2.24207, 184.58228)"/>
<path fill="none" stroke-width="0.49814" stroke-linecap="round" stroke-linejoin="round" stroke="rgb(0%, 0%, 0%)" stroke-opacity="1" stroke-miterlimit="10" d="M 146.949336 174.343999 C 148.515742 175.51978 149.437617 177.367436 149.437617 179.328374 C 149.437617 177.367436 150.363399 175.51978 151.929805 174.343999 " transform="matrix(1, 0, 0, -1, 2.24207, 184.58228)"/>
<path fill="none" stroke-width="0.49814" stroke-linecap="round" stroke-linejoin="round" stroke="rgb(0%, 0%, 0%)" stroke-opacity="1" stroke-miterlimit="10" d="M 51.63293 77.70728 L 51.63293 81.691655 " transform="matrix(1, 0, 0, -1, 2.24207, 184.58228)"/>
<path fill="none" stroke-width="0.49814" stroke-linecap="round" stroke-linejoin="round" stroke="rgb(0%, 0%, 0%)" stroke-opacity="1" stroke-miterlimit="10" d="M 71.191524 77.70728 L 71.191524 81.691655 " transform="matrix(1, 0, 0, -1, 2.24207, 184.58228)"/>
<path fill="none" stroke-width="0.49814" stroke-linecap="round" stroke-linejoin="round" stroke="rgb(0%, 0%, 0%)" stroke-opacity="1" stroke-miterlimit="10" d="M 90.754024 77.70728 L 90.754024 81.691655 " transform="matrix(1, 0, 0, -1, 2.24207, 184.58228)"/>
<path fill="none" stroke-width="0.49814" stroke-linecap="round" stroke-linejoin="round" stroke="rgb(0%, 0%, 0%)" stroke-opacity="1" stroke-miterlimit="10" d="M 151.433711 106.26978 L 147.44543 106.26978 " transform="matrix(1, 0, 0, -1, 2.24207, 184.58228)"/>
<path fill="none" stroke-width="0.49814" stroke-linecap="round" stroke-linejoin="round" stroke="rgb(0%, 0%, 0%)" stroke-opacity="1" stroke-miterlimit="10" d="M 151.433711 119.55103 L 147.44543 119.55103 " transform="matrix(1, 0, 0, -1, 2.24207, 184.58228)"/>
<path fill="none" stroke-width="0.49814" stroke-linecap="round" stroke-linejoin="round" stroke="rgb(0%, 0%, 0%)" stroke-opacity="1" stroke-miterlimit="10" d="M 151.433711 132.83228 L 147.44543 132.83228 " transform="matrix(1, 0, 0, -1, 2.24207, 184.58228)"/>
<path fill="none" stroke-width="0.49814" stroke-linecap="round" stroke-linejoin="round" stroke="rgb(0%, 0%, 0%)" stroke-opacity="1" stroke-miterlimit="10" d="M 37.359493 181.14478 C 38.273555 170.625249 39.94543 160.156499 42.375118 149.793217 C 43.312618 145.80103 45.304805 142.043217 47.394649 138.343999 C 48.683711 136.062749 50.523555 134.023686 52.410274 132.027592 C 53.890743 130.465092 55.648555 129.090092 57.425899 127.742436 C 59.004024 126.547124 60.722774 125.480717 62.44543 124.418217 C 64.07043 123.414311 65.773555 122.492436 67.461055 121.554936 C 69.117305 120.640874 70.812618 119.76978 72.47668 118.867436 C 74.156368 117.95728 75.85168 117.066655 77.496211 116.117436 C 79.199336 115.133061 80.906368 114.148686 82.511836 113.062749 C 84.25793 111.883061 85.992305 110.683842 87.527461 109.33228 C 89.355586 107.718999 91.148555 106.074467 92.546993 104.20728 C 94.523555 101.562749 96.425899 98.86353 97.562618 95.918217 C 99.804805 90.105717 101.957149 84.23853 102.578243 78.172124 C 105.312618 51.633061 106.984493 25.027592 107.597774 -1.601314 " transform="matrix(1, 0, 0, -1, 2.24207, 184.58228)"/>
<path fill="none" stroke-width="0.49814" stroke-linecap="round" stroke-linejoin="round" stroke="rgb(0%, 0%, 0%)" stroke-opacity="1" stroke-miterlimit="10" d="M 109.023555 1.422124 C 108.097774 0.695561 107.57043 -0.425533 107.597774 -1.601314 C 107.57043 -0.425533 106.992305 0.668217 106.035274 1.351811 " transform="matrix(1, 0, 0, -1, 2.24207, 184.58228)"/>
<path fill="none" stroke-width="0.49814" stroke-linecap="round" stroke-linejoin="round" stroke="rgb(0%, 0%, 0%)" stroke-opacity="1" stroke-miterlimit="10" d="M 36.129024 178.035405 C 37.004024 178.820561 37.461055 179.972905 37.359493 181.14478 C 37.461055 179.972905 38.109493 178.918217 39.105586 178.293217 " transform="matrix(1, 0, 0, -1, 2.24207, 184.58228)"/>
<path fill="none" stroke-width="0.49814" stroke-linecap="round" stroke-linejoin="round" stroke="rgb(0%, 0%, 0%)" stroke-opacity="1" stroke-miterlimit="10" d="M 32.07043 0.00024875 L 32.07043 2.039311 " transform="matrix(1, 0, 0, -1, 2.24207, 184.58228)"/>
<path fill="none" stroke-width="0.49814" stroke-linecap="round" stroke-linejoin="round" stroke="rgb(0%, 0%, 0%)" stroke-opacity="1" stroke-miterlimit="10" d="M 32.07043 6.11353 L 32.07043 10.191655 " transform="matrix(1, 0, 0, -1, 2.24207, 184.58228)"/>
<path fill="none" stroke-width="0.49814" stroke-linecap="round" stroke-linejoin="round" stroke="rgb(0%, 0%, 0%)" stroke-opacity="1" stroke-miterlimit="10" d="M 32.07043 14.265874 L 32.07043 18.343999 " transform="matrix(1, 0, 0, -1, 2.24207, 184.58228)"/>
<path fill="none" stroke-width="0.49814" stroke-linecap="round" stroke-linejoin="round" stroke="rgb(0%, 0%, 0%)" stroke-opacity="1" stroke-miterlimit="10" d="M 32.07043 22.414311 L 32.07043 26.492436 " transform="matrix(1, 0, 0, -1, 2.24207, 184.58228)"/>
<path fill="none" stroke-width="0.49814" stroke-linecap="round" stroke-linejoin="round" stroke="rgb(0%, 0%, 0%)" stroke-opacity="1" stroke-miterlimit="10" d="M 32.07043 30.566655 L 32.07043 34.640874 " transform="matrix(1, 0, 0, -1, 2.24207, 184.58228)"/>
<path fill="none" stroke-width="0.49814" stroke-linecap="round" stroke-linejoin="round" stroke="rgb(0%, 0%, 0%)" stroke-opacity="1" stroke-miterlimit="10" d="M 32.07043 38.718999 L 32.07043 42.793217 " transform="matrix(1, 0, 0, -1, 2.24207, 184.58228)"/>
<path fill="none" stroke-width="0.49814" stroke-linecap="round" stroke-linejoin="round" stroke="rgb(0%, 0%, 0%)" stroke-opacity="1" stroke-miterlimit="10" d="M 32.07043 46.871342 L 32.07043 50.945561 " transform="matrix(1, 0, 0, -1, 2.24207, 184.58228)"/>
<path fill="none" stroke-width="0.49814" stroke-linecap="round" stroke-linejoin="round" stroke="rgb(0%, 0%, 0%)" stroke-opacity="1" stroke-miterlimit="10" d="M 32.07043 55.023686 L 32.07043 59.097905 " transform="matrix(1, 0, 0, -1, 2.24207, 184.58228)"/>
<path fill="none" stroke-width="0.49814" stroke-linecap="round" stroke-linejoin="round" stroke="rgb(0%, 0%, 0%)" stroke-opacity="1" stroke-miterlimit="10" d="M 32.07043 63.172124 L 32.07043 67.246342 " transform="matrix(1, 0, 0, -1, 2.24207, 184.58228)"/>
<path fill="none" stroke-width="0.49814" stroke-linecap="round" stroke-linejoin="round" stroke="rgb(0%, 0%, 0%)" stroke-opacity="1" stroke-miterlimit="10" d="M 32.07043 71.324467 L 32.07043 75.398686 " transform="matrix(1, 0, 0, -1, 2.24207, 184.58228)"/>
<path fill="none" stroke-width="0.49814" stroke-linecap="round" stroke-linejoin="round" stroke="rgb(0%, 0%, 0%)" stroke-opacity="1" stroke-miterlimit="10" d="M 32.07043 79.472905 L 32.07043 83.55103 " transform="matrix(1, 0, 0, -1, 2.24207, 184.58228)"/>
<path fill="none" stroke-width="0.49814" stroke-linecap="round" stroke-linejoin="round" stroke="rgb(0%, 0%, 0%)" stroke-opacity="1" stroke-miterlimit="10" d="M 32.07043 87.625249 L 32.07043 91.703374 " transform="matrix(1, 0, 0, -1, 2.24207, 184.58228)"/>
<path fill="none" stroke-width="0.49814" stroke-linecap="round" stroke-linejoin="round" stroke="rgb(0%, 0%, 0%)" stroke-opacity="1" stroke-miterlimit="10" d="M 32.07043 95.777592 L 32.07043 99.851811 " transform="matrix(1, 0, 0, -1, 2.24207, 184.58228)"/>
<path fill="none" stroke-width="0.49814" stroke-linecap="round" stroke-linejoin="round" stroke="rgb(0%, 0%, 0%)" stroke-opacity="1" stroke-miterlimit="10" d="M 32.07043 103.92603 L 32.07043 108.004155 " transform="matrix(1, 0, 0, -1, 2.24207, 184.58228)"/>
<path fill="none" stroke-width="0.49814" stroke-linecap="round" stroke-linejoin="round" stroke="rgb(0%, 0%, 0%)" stroke-opacity="1" stroke-miterlimit="10" d="M 32.07043 112.078374 L 32.07043 116.156499 " transform="matrix(1, 0, 0, -1, 2.24207, 184.58228)"/>
<path fill="none" stroke-width="0.49814" stroke-linecap="round" stroke-linejoin="round" stroke="rgb(0%, 0%, 0%)" stroke-opacity="1" stroke-miterlimit="10" d="M 32.07043 120.230717 L 32.07043 124.308842 " transform="matrix(1, 0, 0, -1, 2.24207, 184.58228)"/>
<path fill="none" stroke-width="0.49814" stroke-linecap="round" stroke-linejoin="round" stroke="rgb(0%, 0%, 0%)" stroke-opacity="1" stroke-miterlimit="10" d="M 32.07043 128.383061 L 32.07043 132.45728 " transform="matrix(1, 0, 0, -1, 2.24207, 184.58228)"/>
<path fill="none" stroke-width="0.49814" stroke-linecap="round" stroke-linejoin="round" stroke="rgb(0%, 0%, 0%)" stroke-opacity="1" stroke-miterlimit="10" d="M 32.07043 136.535405 L 32.07043 140.609624 " transform="matrix(1, 0, 0, -1, 2.24207, 184.58228)"/>
<path fill="none" stroke-width="0.49814" stroke-linecap="round" stroke-linejoin="round" stroke="rgb(0%, 0%, 0%)" stroke-opacity="1" stroke-miterlimit="10" d="M 32.07043 144.683842 L 32.07043 148.758061 " transform="matrix(1, 0, 0, -1, 2.24207, 184.58228)"/>
<path fill="none" stroke-width="0.49814" stroke-linecap="round" stroke-linejoin="round" stroke="rgb(0%, 0%, 0%)" stroke-opacity="1" stroke-miterlimit="10" d="M 32.07043 152.836186 L 32.07043 156.910405 " transform="matrix(1, 0, 0, -1, 2.24207, 184.58228)"/>
<path fill="none" stroke-width="0.49814" stroke-linecap="round" stroke-linejoin="round" stroke="rgb(0%, 0%, 0%)" stroke-opacity="1" stroke-miterlimit="10" d="M 32.07043 160.98853 L 32.07043 165.062749 " transform="matrix(1, 0, 0, -1, 2.24207, 184.58228)"/>
<path fill="none" stroke-width="0.49814" stroke-linecap="round" stroke-linejoin="round" stroke="rgb(0%, 0%, 0%)" stroke-opacity="1" stroke-miterlimit="10" d="M 32.07043 169.140874 L 32.07043 173.215092 " transform="matrix(1, 0, 0, -1, 2.24207, 184.58228)"/>
<path fill="none" stroke-width="0.49814" stroke-linecap="round" stroke-linejoin="round" stroke="rgb(0%, 0%, 0%)" stroke-opacity="1" stroke-miterlimit="10" d="M 32.07043 177.289311 L 32.07043 179.328374 " transform="matrix(1, 0, 0, -1, 2.24207, 184.58228)"/>
<path fill="none" stroke-width="0.49814" stroke-linecap="round" stroke-linejoin="round" stroke="rgb(0%, 0%, 0%)" stroke-opacity="1" stroke-miterlimit="10" d="M 110.316524 0.00024875 L 110.316524 2.039311 " transform="matrix(1, 0, 0, -1, 2.24207, 184.58228)"/>
<path fill="none" stroke-width="0.49814" stroke-linecap="round" stroke-linejoin="round" stroke="rgb(0%, 0%, 0%)" stroke-opacity="1" stroke-miterlimit="10" d="M 110.316524 6.11353 L 110.316524 10.191655 " transform="matrix(1, 0, 0, -1, 2.24207, 184.58228)"/>
<path fill="none" stroke-width="0.49814" stroke-linecap="round" stroke-linejoin="round" stroke="rgb(0%, 0%, 0%)" stroke-opacity="1" stroke-miterlimit="10" d="M 110.316524 14.265874 L 110.316524 18.343999 " transform="matrix(1, 0, 0, -1, 2.24207, 184.58228)"/>
<path fill="none" stroke-width="0.49814" stroke-linecap="round" stroke-linejoin="round" stroke="rgb(0%, 0%, 0%)" stroke-opacity="1" stroke-miterlimit="10" d="M 110.316524 22.414311 L 110.316524 26.492436 " transform="matrix(1, 0, 0, -1, 2.24207, 184.58228)"/>
<path fill="none" stroke-width="0.49814" stroke-linecap="round" stroke-linejoin="round" stroke="rgb(0%, 0%, 0%)" stroke-opacity="1" stroke-miterlimit="10" d="M 110.316524 30.566655 L 110.316524 34.640874 " transform="matrix(1, 0, 0, -1, 2.24207, 184.58228)"/>
<path fill="none" stroke-width="0.49814" stroke-linecap="round" stroke-linejoin="round" stroke="rgb(0%, 0%, 0%)" stroke-opacity="1" stroke-miterlimit="10" d="M 110.316524 38.718999 L 110.316524 42.793217 " transform="matrix(1, 0, 0, -1, 2.24207, 184.58228)"/>
<path fill="none" stroke-width="0.49814" stroke-linecap="round" stroke-linejoin="round" stroke="rgb(0%, 0%, 0%)" stroke-opacity="1" stroke-miterlimit="10" d="M 110.316524 46.871342 L 110.316524 50.945561 " transform="matrix(1, 0, 0, -1, 2.24207, 184.58228)"/>
<path fill="none" stroke-width="0.49814" stroke-linecap="round" stroke-linejoin="round" stroke="rgb(0%, 0%, 0%)" stroke-opacity="1" stroke-miterlimit="10" d="M 110.316524 55.023686 L 110.316524 59.097905 " transform="matrix(1, 0, 0, -1, 2.24207, 184.58228)"/>
<path fill="none" stroke-width="0.49814" stroke-linecap="round" stroke-linejoin="round" stroke="rgb(0%, 0%, 0%)" stroke-opacity="1" stroke-miterlimit="10" d="M 110.316524 63.172124 L 110.316524 67.246342 " transform="matrix(1, 0, 0, -1, 2.24207, 184.58228)"/>
<path fill="none" stroke-width="0.49814" stroke-linecap="round" stroke-linejoin="round" stroke="rgb(0%, 0%, 0%)" stroke-opacity="1" stroke-miterlimit="10" d="M 110.316524 71.324467 L 110.316524 75.398686 " transform="matrix(1, 0, 0, -1, 2.24207, 184.58228)"/>
<path fill="none" stroke-width="0.49814" stroke-linecap="round" stroke-linejoin="round" stroke="rgb(0%, 0%, 0%)" stroke-opacity="1" stroke-miterlimit="10" d="M 110.316524 79.472905 L 110.316524 83.55103 " transform="matrix(1, 0, 0, -1, 2.24207, 184.58228)"/>
<path fill="none" stroke-width="0.49814" stroke-linecap="round" stroke-linejoin="round" stroke="rgb(0%, 0%, 0%)" stroke-opacity="1" stroke-miterlimit="10" d="M 110.316524 87.625249 L 110.316524 91.703374 " transform="matrix(1, 0, 0, -1, 2.24207, 184.58228)"/>
<path fill="none" stroke-width="0.49814" stroke-linecap="round" stroke-linejoin="round" stroke="rgb(0%, 0%, 0%)" stroke-opacity="1" stroke-miterlimit="10" d="M 110.316524 95.777592 L 110.316524 99.851811 " transform="matrix(1, 0, 0, -1, 2.24207, 184.58228)"/>
<path fill="none" stroke-width="0.49814" stroke-linecap="round" stroke-linejoin="round" stroke="rgb(0%, 0%, 0%)" stroke-opacity="1" stroke-miterlimit="10" d="M 110.316524 103.92603 L 110.316524 108.004155 " transform="matrix(1, 0, 0, -1, 2.24207, 184.58228)"/>
<path fill="none" stroke-width="0.49814" stroke-linecap="round" stroke-linejoin="round" stroke="rgb(0%, 0%, 0%)" stroke-opacity="1" stroke-miterlimit="10" d="M 110.316524 112.078374 L 110.316524 116.156499 " transform="matrix(1, 0, 0, -1, 2.24207, 184.58228)"/>
<path fill="none" stroke-width="0.49814" stroke-linecap="round" stroke-linejoin="round" stroke="rgb(0%, 0%, 0%)" stroke-opacity="1" stroke-miterlimit="10" d="M 110.316524 120.230717 L 110.316524 124.308842 " transform="matrix(1, 0, 0, -1, 2.24207, 184.58228)"/>
<path fill="none" stroke-width="0.49814" stroke-linecap="round" stroke-linejoin="round" stroke="rgb(0%, 0%, 0%)" stroke-opacity="1" stroke-miterlimit="10" d="M 110.316524 128.383061 L 110.316524 132.45728 " transform="matrix(1, 0, 0, -1, 2.24207, 184.58228)"/>
<path fill="none" stroke-width="0.49814" stroke-linecap="round" stroke-linejoin="round" stroke="rgb(0%, 0%, 0%)" stroke-opacity="1" stroke-miterlimit="10" d="M 110.316524 136.535405 L 110.316524 140.609624 " transform="matrix(1, 0, 0, -1, 2.24207, 184.58228)"/>
<path fill="none" stroke-width="0.49814" stroke-linecap="round" stroke-linejoin="round" stroke="rgb(0%, 0%, 0%)" stroke-opacity="1" stroke-miterlimit="10" d="M 110.316524 144.683842 L 110.316524 148.758061 " transform="matrix(1, 0, 0, -1, 2.24207, 184.58228)"/>
<path fill="none" stroke-width="0.49814" stroke-linecap="round" stroke-linejoin="round" stroke="rgb(0%, 0%, 0%)" stroke-opacity="1" stroke-miterlimit="10" d="M 110.316524 152.836186 L 110.316524 156.910405 " transform="matrix(1, 0, 0, -1, 2.24207, 184.58228)"/>
<path fill="none" stroke-width="0.49814" stroke-linecap="round" stroke-linejoin="round" stroke="rgb(0%, 0%, 0%)" stroke-opacity="1" stroke-miterlimit="10" d="M 110.316524 160.98853 L 110.316524 165.062749 " transform="matrix(1, 0, 0, -1, 2.24207, 184.58228)"/>
<path fill="none" stroke-width="0.49814" stroke-linecap="round" stroke-linejoin="round" stroke="rgb(0%, 0%, 0%)" stroke-opacity="1" stroke-miterlimit="10" d="M 110.316524 169.140874 L 110.316524 173.215092 " transform="matrix(1, 0, 0, -1, 2.24207, 184.58228)"/>
<path fill="none" stroke-width="0.49814" stroke-linecap="round" stroke-linejoin="round" stroke="rgb(0%, 0%, 0%)" stroke-opacity="1" stroke-miterlimit="10" d="M 110.316524 177.289311 L 110.316524 179.328374 " transform="matrix(1, 0, 0, -1, 2.24207, 184.58228)"/>
<g fill="rgb(0%, 0%, 0%)" fill-opacity="1">
<use xlink:href="#glyph-0-0" x="174.492" y="116.84"/>
</g>
<g fill="rgb(0%, 0%, 0%)" fill-opacity="1">
<use xlink:href="#glyph-0-1" x="162.264" y="6.282"/>
</g>
<g fill="rgb(0%, 0%, 0%)" fill-opacity="1">
<use xlink:href="#glyph-1-0" x="19.038" y="116.243"/>
</g>
<g fill="rgb(0%, 0%, 0%)" fill-opacity="1">
<use xlink:href="#glyph-2-0" x="27.401" y="112.57"/>
</g>
<g fill="rgb(0%, 0%, 0%)" fill-opacity="1">
<use xlink:href="#glyph-3-0" x="31.053911" y="112.57"/>
</g>
<path fill="none" stroke-width="0.379" stroke-linecap="butt" stroke-linejoin="miter" stroke="rgb(0%, 0%, 0%)" stroke-opacity="1" stroke-miterlimit="10" d="M 0.00134375 -0.00190625 L 8.212281 -0.00190625 " transform="matrix(1, 0, 0, -1, 27.401, 114.002)"/>
<g fill="rgb(0%, 0%, 0%)" fill-opacity="1">
<use xlink:href="#glyph-2-1" x="29.68" y="119.286"/>
</g>
<g fill="rgb(0%, 0%, 0%)" fill-opacity="1">
<use xlink:href="#glyph-1-0" x="41.09" y="116.243"/>
</g>
<g fill="rgb(0%, 0%, 0%)" fill-opacity="1">
<use xlink:href="#glyph-2-2" x="49.453" y="112.57"/>
</g>
<g fill="rgb(0%, 0%, 0%)" fill-opacity="1">
<use xlink:href="#glyph-3-0" x="53.105911" y="112.57"/>
</g>
<path fill="none" stroke-width="0.379" stroke-linecap="butt" stroke-linejoin="miter" stroke="rgb(0%, 0%, 0%)" stroke-opacity="1" stroke-miterlimit="10" d="M 0.000125 -0.00190625 L 8.211063 -0.00190625 " transform="matrix(1, 0, 0, -1, 49.453, 114.002)"/>
<g fill="rgb(0%, 0%, 0%)" fill-opacity="1">
<use xlink:href="#glyph-2-3" x="51.732" y="119.286"/>
</g>
<g fill="rgb(0%, 0%, 0%)" fill-opacity="1">
<use xlink:href="#glyph-1-0" x="62.478" y="114.965"/>
</g>
<g fill="rgb(0%, 0%, 0%)" fill-opacity="1">
<use xlink:href="#glyph-3-0" x="70.841" y="111.291"/>
</g>
<path fill="none" stroke-width="0.379" stroke-linecap="butt" stroke-linejoin="miter" stroke="rgb(0%, 0%, 0%)" stroke-opacity="1" stroke-miterlimit="10" d="M -0.00115625 0.00034375 L 4.557437 0.00034375 " transform="matrix(1, 0, 0, -1, 70.841, 112.723)"/>
<g fill="rgb(0%, 0%, 0%)" fill-opacity="1">
<use xlink:href="#glyph-2-4" x="71.294" y="118.007"/>
</g>
<g fill="rgb(0%, 0%, 0%)" fill-opacity="1">
<use xlink:href="#glyph-1-0" x="80.213" y="116.243"/>
</g>
<g fill="rgb(0%, 0%, 0%)" fill-opacity="1">
<use xlink:href="#glyph-2-0" x="88.576" y="112.57"/>
</g>
<g fill="rgb(0%, 0%, 0%)" fill-opacity="1">
<use xlink:href="#glyph-3-0" x="92.228911" y="112.57"/>
</g>
<path fill="none" stroke-width="0.379" stroke-linecap="butt" stroke-linejoin="miter" stroke="rgb(0%, 0%, 0%)" stroke-opacity="1" stroke-miterlimit="10" d="M -0.00178125 -0.00190625 L 8.209156 -0.00190625 " transform="matrix(1, 0, 0, -1, 88.576, 114.002)"/>
<g fill="rgb(0%, 0%, 0%)" fill-opacity="1">
<use xlink:href="#glyph-2-3" x="90.856" y="119.286"/>
</g>
<g fill="rgb(0%, 0%, 0%)" fill-opacity="1">
<use xlink:href="#glyph-1-0" x="106.25" y="114.965"/>
</g>
<g fill="rgb(0%, 0%, 0%)" fill-opacity="1">
<use xlink:href="#glyph-3-0" x="114.613" y="111.291"/>
</g>
<path fill="none" stroke-width="0.379" stroke-linecap="butt" stroke-linejoin="miter" stroke="rgb(0%, 0%, 0%)" stroke-opacity="1" stroke-miterlimit="10" d="M 0.00028125 0.00034375 L 4.558875 0.00034375 " transform="matrix(1, 0, 0, -1, 114.613, 112.723)"/>
<g fill="rgb(0%, 0%, 0%)" fill-opacity="1">
<use xlink:href="#glyph-2-1" x="115.066" y="118.007"/>
</g>
<g fill="rgb(0%, 0%, 0%)" fill-opacity="1">
<use xlink:href="#glyph-2-1" x="143.599" y="50.168"/>
</g>
<path fill="none" stroke-width="0.379" stroke-linecap="butt" stroke-linejoin="miter" stroke="rgb(0%, 0%, 0%)" stroke-opacity="1" stroke-miterlimit="10" d="M -0.00134375 -0.0015625 L 3.654906 -0.0015625 " transform="matrix(1, 0, 0, -1, 143.599, 51.6)"/>
<g fill="rgb(0%, 0%, 0%)" fill-opacity="1">
<use xlink:href="#glyph-2-0" x="143.599" y="56.884"/>
</g>
<g fill="rgb(0%, 0%, 0%)" fill-opacity="1">
<use xlink:href="#glyph-4-0" x="143.839" y="67.771"/>
</g>
<g fill="rgb(0%, 0%, 0%)" fill-opacity="1">
<use xlink:href="#glyph-2-4" x="143.599" y="76.732"/>
</g>
<path fill="none" stroke-width="0.379" stroke-linecap="butt" stroke-linejoin="miter" stroke="rgb(0%, 0%, 0%)" stroke-opacity="1" stroke-miterlimit="10" d="M -0.00134375 -0.0000625 L 3.654906 -0.0000625 " transform="matrix(1, 0, 0, -1, 143.599, 78.164)"/>
<g fill="rgb(0%, 0%, 0%)" fill-opacity="1">
<use xlink:href="#glyph-2-0" x="143.599" y="83.448"/>
</g>
</svg>
